<?xml version="1.0" encoding="UTF-8" standalone="no"?>
<!-- Creator: CorelDRAW -->

<svg
   xml:space="preserve"
   width="32.0322in"
   height="6.85737in"
   version="1.1"
   style="shape-rendering:geometricPrecision; text-rendering:geometricPrecision; image-rendering:optimizeQuality; fill-rule:evenodd; clip-rule:evenodd"
   viewBox="0 0 30177.48 6460.31"
   id="svg1"
   sodipodi:docname="200759e8-1def-4ff5-8239-c7f306e625bb.svg"
   xmlns:inkscape="http://www.inkscape.org/namespaces/inkscape"
   xmlns:sodipodi="http://sodipodi.sourceforge.net/DTD/sodipodi-0.dtd"
   xmlns="http://www.w3.org/2000/svg"
   xmlns:svg="http://www.w3.org/2000/svg"><sodipodi:namedview
   id="namedview1"
   pagecolor="#ffffff"
   bordercolor="#000000"
   borderopacity="0.25"
   inkscape:showpageshadow="2"
   inkscape:pageopacity="0.0"
   inkscape:pagecheckerboard="0"
   inkscape:deskcolor="#d1d1d1"
   inkscape:document-units="in" />
 <defs
   id="defs1">
  <style
   type="text/css"
   id="style1">
   <![CDATA[
    .fil0 {fill:#184B95}
    .fil1 {fill:#ED1B2F}
    .fil2 {fill:#184B95;fill-rule:nonzero}
   ]]>
  </style>
 </defs>
 <g
   id="Layer_x0020_1"
   inkscape:label="Layer 1">
  <metadata
   id="CorelCorpID_0Corel-Layer" />
  <path
   id="path2"
   class="fil0"
   d="M11328.04 2073.99l-748.21 0 0 -708.82 931.99 0c292.63,0 494.76,115.53 429.94,429.9 -53.32,258.68 -369.85,278.92 -613.72,278.92l0 0.01zm-2165.85 2323.36c0,30.25 9.14,39.38 39.38,39.38l1338.89 -0.01c30.25,0 39.38,-9.14 39.38,-39.38l0 -1023.86 643.17 0.01c37.17,0 82.22,90.49 102.38,120.77l89.24 133.89 530.31 808.57 1706.41 0c-14.26,-61.12 -74.51,-126.6 -110.38,-178.43 -73.79,-106.45 -809.08,-1179.17 -821.6,-1226.1 466.41,-312.31 682.56,-783.17 682.56,-1378.26 0,-1042.47 -838.11,-1601.43 -1863.92,-1601.43l-2375.86 0 0 4344.8 0.04 0.05zm-9162.19 0c0,30.25 9.14,39.38 39.38,39.38l3846.02 -0.01 0 -1260.13 -2467.76 0 0 -380.67 2139.57 0 0 -1141.99 -2139.57 0 0 -341.3 2389.01 0c30.24,0 39.38,-9.14 39.38,-39.38l0 -1220.75 -3846.03 0.01 0 4344.8 0 0.05zm16171.7 -1233.87c-335.39,0 -558.59,-26.58 -834.75,-241.58 -387.21,-301.52 -404.31,-1050.83 -0.04,-1367.63 542.1,-424.74 1819.39,-306.92 1819.39,677.23 0,113.72 -32.48,289.21 -83.09,389.58 -68.83,136.6 -97.54,182.29 -202.29,283.41 -138.77,133.97 -428.52,258.96 -699.26,258.96l0.04 0.03zm-183.78 1325.78c302.55,0 420.68,2.95 729.54,-58.09 194.8,-38.51 375.47,-102.15 543.99,-177.99 185.6,-83.49 285.5,-142.43 453.61,-268.37 207.05,-155.11 419.86,-380.56 543.83,-611.32 142.71,-265.65 168.85,-325.43 244.23,-622.11 181.73,-715.24 -36.19,-1468.41 -496.85,-1986.91 -28.63,-32.25 -32.09,-48.01 -65.33,-79.04 -404.93,-378.55 -1015.04,-685.43 -1769.18,-685.43 -430.17,0 -767.96,39.38 -1129,183.62 -239.9,95.85 -538,253.76 -718.62,436.48 -414.66,419.43 -590.25,735.64 -678.47,1342.99l-21.39 268.29c-1.11,101.68 38.98,420.14 61.35,517.24 74.82,324.61 252.54,724.77 487.48,956.4 165.27,162.95 241.94,259.15 468.37,397.97 117.94,72.26 250.02,139.47 384.5,193.08 253.32,100.97 614.55,193.11 961.99,193.11l-0.04 0.08zm-11682.45 -1982.1c0,1249.14 911.55,1982.07 2165.84,1982.07 528.46,0 1046.46,-120.98 1453.44,-423.61 262.54,-195.23 460.97,-444.08 588.64,-763.37 110.46,-276.2 149.99,-546.89 149.99,-926.35l0 -2323.36 -1417.64 0 0 2454.61c0,326.13 -154.21,544.45 -438.44,624.78 -291.72,82.41 -730.17,63.75 -943.12,-175.16 -137.03,-153.73 -154.17,-425.97 -154.17,-712.13l0 -2192.11 -1404.54 0.01 0 2454.61zm15804.13 1929.57l1181.37 0c4.88,-58.55 202.06,-475.19 230.64,-543.83l599.94 -1369.01c40.56,-94.94 75.09,-181.14 118.92,-274.87l721.19 -1641.55c35.32,-82.7 228.95,-510.59 232.61,-554.97l-1548.89 0.01 -232.58 581.24c-82.85,191.78 -162.83,386.98 -238.08,575.76l-117.98 288.92 -119.84 287.12c-40.83,92.38 -81.44,195.17 -118.49,288.42l-118.14 301.92c-1.81,-2.64 -4.09,-10.28 -4.77,-8.35l-117.86 -275.93c-43.13,-96.2 -80.06,-188.97 -119.36,-287.55l-240.01 -586.94c-82.85,-191.78 -162.83,-386.98 -238.09,-575.76l-180.04 -436.91c-19.89,-49.85 -47.25,-105.3 -58.12,-151.88l-1548.9 -0.01c4.34,52.05 142.56,342.24 174.3,416.39l60.18 136.73 359.88 821.52c40.56,94.94 75.09,181.14 118.92,274.87 86.04,183.98 152.91,364.45 240.61,546.97l962.62 2187.71 -0.04 -0.01zm5053.63 0l1562.05 0c3.98,-47.69 371.15,-914.1 412.61,-1018.14 21.66,-54.27 38.63,-100.81 60.29,-149.76 40.52,-91.63 81.32,-191.54 119.79,-287.12l365.52 -881.5 1470.14 0.01c-4.96,-59.62 -336.49,-780.49 -386.31,-900.08l-336.02 -766.59c-18.08,-41.31 -35.21,-82.93 -56.51,-127.24 -42.53,-88.53 -70.05,-171.18 -113.77,-253.8l-1181.36 0.01c-15.24,65.41 -31.78,84 -56.27,140.63l-898.2 2055.27 -240.41 547.17 -599.67 1369.29 -60.77 136.13c-22.17,49.93 -38.16,92.3 -61.16,135.74l0.06 0zm-1693.3 -39.37c0,30.25 9.14,39.38 39.38,39.38l1378.26 -0.01 0 -4384.18 -1417.64 0 0 4344.81z" />
  <path
   id="path4"
   class="fil1"
   d="M28628.58 4436.73l1548.9 0c-4.21,-50.96 -111.13,-267.03 -138.85,-333.7 -48.83,-117.51 -102.98,-227.41 -148.11,-337.56l-215.48 -493.34c-25.94,-60.72 -48.44,-118.65 -75.09,-174.3l-1509.52 0.01c4.77,57.41 227.22,575.49 266.2,665.74l206.39 502.47c19.22,48.36 54.07,121.2 65.6,170.67l-0.03 0z" />
  <path
   class="fil2"
   d="M7440.61 6374.69c113.49,0 206.48,-18.24 278.97,-54.73 14.5,-7.06 26.5,-4.71 36,7.06l15 19.42c6,7.65 8.62,15.45 7.87,23.39 -0.75,7.94 -4.87,14.86 -12.37,20.74 -24,17.66 -63.12,33.69 -117.36,48.11 -54.24,14.42 -123.61,21.63 -208.1,21.63 -136.49,0 -237.85,-24.87 -304.09,-74.59 -66.24,-49.73 -99.37,-131.38 -99.37,-244.96 0,-113.58 33.12,-195.24 99.37,-244.96 66.24,-49.73 167.6,-74.59 304.09,-74.59 83.49,0 152.36,7.21 206.6,21.63 54.24,14.42 93.36,30.45 117.36,48.11 7.5,5.89 11.62,12.8 12.37,20.74 0.75,7.94 -1.87,15.74 -7.87,23.39l-15 19.42c-9,12.36 -21,14.71 -35.99,7.06 -74.99,-36.49 -167.48,-54.73 -277.47,-54.73 -118.99,0 -202.6,18.69 -250.85,56.05 -48.24,37.37 -72.37,96.66 -72.37,177.87 0,81.21 24.12,140.51 72.37,177.87 48.24,37.37 131.86,56.05 250.85,56.05zm1364.35 -553.49c135.48,0 236.1,24.72 301.84,74.15 65.74,49.43 98.62,131.24 98.62,245.41 0,112.4 -33.13,193.76 -99.37,244.08 -66.24,50.32 -166.61,75.48 -301.09,75.48l-4.5 0c-134.99,0 -235.6,-25.16 -301.84,-75.48 -66.24,-50.32 -99.37,-131.68 -99.37,-244.08 0,-114.17 33,-195.97 98.99,-245.41 65.99,-49.43 166.73,-74.15 302.22,-74.15l4.5 0zm0 553.49c115.48,0 197.73,-18.98 246.72,-56.94 48.99,-37.96 73.49,-96.95 73.49,-176.99 0,-81.21 -24.25,-140.51 -72.74,-177.87 -48.5,-37.37 -130.99,-56.05 -247.47,-56.05l-4.5 0c-116.49,0 -199.11,18.69 -247.85,56.05 -48.74,37.37 -73.12,96.66 -73.12,177.87 0,80.04 24.5,139.03 73.49,176.99 49,37.96 131.49,56.94 247.47,56.94l4.5 0zm1743.81 -542.89c17.5,0 26.25,10.3 26.25,30.9l0 556.13c0,20.6 -8.75,30.9 -26.25,30.9l-26.25 0c-17,0 -30.74,-5 -41.24,-15.01l-542.94 -489.04 0 473.16c0,20.6 -8.75,30.9 -26.25,30.9l-26.25 0c-17.5,0 -26.25,-10.3 -26.25,-30.9l0 -556.13c0,-20.6 8.75,-30.9 26.25,-30.9l26.25 0c17,0 30.74,5 41.24,15.01l542.94 488.16 0 -472.27c0,-20.6 8.75,-30.9 26.25,-30.9l26.25 0zm774.92 159.78c0,10 3,19.13 9,27.37 6,8.24 15.5,15.6 28.5,22.07 13,6.47 26.5,12.07 40.5,16.77 14,4.71 32.12,9.12 54.37,13.24 22.25,4.12 41.99,7.5 59.24,10.15 17.25,2.65 39.37,5.74 66.37,9.27 29,3.53 51.37,6.47 67.12,8.83 15.75,2.36 37.12,5.74 64.12,10.15 27,4.41 48.24,8.98 63.74,13.68 15.5,4.71 33.74,10.44 54.74,17.21 21,6.77 37.5,14.27 49.5,22.51 12,8.24 23.87,17.66 35.62,28.25 11.75,10.59 20.25,22.8 25.5,36.63 5.25,13.83 7.87,28.98 7.87,45.46 0,65.32 -29.62,112.84 -88.86,142.56 -59.24,29.72 -149.61,44.58 -271.09,44.58l-9 0c-78.49,0 -147.36,-7.65 -206.6,-22.95 -59.24,-15.3 -100.61,-31.49 -124.11,-48.55 -8,-5.89 -12.37,-12.8 -13.12,-20.74 -0.75,-7.94 2.12,-15.74 8.62,-23.39l15.75 -17.66c10,-11.77 21.99,-14.12 35.99,-7.06 26,12.95 64.12,25.75 114.36,38.4 50.24,12.65 106.61,18.98 169.1,18.98l9 0c94.49,0 164.36,-8.83 209.6,-26.48 45.25,-17.66 67.87,-41.2 67.87,-70.62 0,-16.48 -7,-30.75 -21,-42.81 -14,-12.07 -34.87,-21.78 -62.62,-29.13 -27.75,-7.36 -56,-13.24 -84.74,-17.66 -28.75,-4.41 -63.87,-9.27 -105.36,-14.57 -4.5,-0.59 -7.75,-0.88 -9.75,-0.88 -26.99,-3.53 -50.74,-6.77 -71.24,-9.71 -20.5,-2.94 -43.25,-7.06 -68.24,-12.36 -25,-5.3 -46.62,-11.03 -64.87,-17.21 -18.25,-6.18 -36.5,-13.98 -54.75,-23.39 -18.24,-9.42 -33.12,-19.71 -44.62,-30.9 -11.5,-11.18 -20.87,-24.42 -28.12,-39.72 -7.25,-15.3 -10.87,-32.07 -10.87,-50.32 0,-58.26 26.99,-101.22 80.99,-128.88 53.99,-27.66 137.23,-41.49 249.72,-41.49l18.75 0c74.49,0 139.61,7.65 195.35,22.95 55.74,15.3 95.37,31.49 118.86,48.55 17.5,12.36 19,27.07 4.5,44.14l-15 17.66c-10,11.77 -22.25,14.12 -36.75,7.06 -75.99,-38.25 -164.98,-57.38 -266.97,-57.38l-18.75 0c-165.48,0 -248.22,29.13 -248.22,87.39zm1969.53 -159.78c17.5,0 26.25,10.3 26.25,30.9l0 24.72c0,20.6 -8.75,30.9 -26.25,30.9l-312.71 0 0 500.52c0,20.6 -8.75,30.9 -26.25,30.9l-26.25 0c-17.5,0 -26.25,-10.3 -26.25,-30.9l0 -500.52 -312.71 0c-17.5,0 -26.25,-10.3 -26.25,-30.9l0 -24.72c0,-20.6 8.75,-30.9 26.25,-30.9l365.21 0 338.96 0zm1404.85 579.97c9.5,9.42 13.12,18.1 10.87,26.04 -2.25,7.94 -9.62,11.92 -22.12,11.92l-41.24 0c-13.5,0 -24.25,-4.41 -32.25,-13.24l-179.23 -184.5 -374.21 0 0 166.84c0,20.6 -8.75,30.9 -26.25,30.9l-26.25 0c-17.5,0 -26.25,-10.3 -26.25,-30.9l0 -556.13c0,-20.6 8.75,-30.9 26.25,-30.9l487.44 0c38,0 70.99,6.03 98.99,18.1 28,12.07 49.49,28.54 64.49,49.43 15,20.89 25.87,43.11 32.62,66.65 6.75,23.54 10.12,48.84 10.12,75.92 0,24.72 -2.75,47.96 -8.25,69.74 -5.5,21.78 -14.37,42.52 -26.62,62.23 -12.25,19.71 -29.5,36.19 -51.74,49.43 -22.25,13.24 -48.62,21.92 -79.12,26.04l162.73 162.43zm-638.18 -493.46l0 254.23 434.95 0c38.5,0 69.37,-10.74 92.61,-32.22 23.25,-21.48 34.87,-54.29 34.87,-98.43 0,-82.39 -42.5,-123.59 -127.49,-123.59l-434.95 0zm2028.03 -86.51c17.5,0 26.25,10.3 26.25,30.9l0 278.07c0,213.04 -120.49,319.56 -361.46,319.56l-24 0c-240.97,0 -361.46,-106.52 -361.46,-319.56l0 -278.07c0,-20.6 8.75,-30.9 26.25,-30.9l26.25 0c17.5,0 26.25,10.3 26.25,30.9l0 278.07c0,155.95 94.24,233.93 282.72,233.93l24 0c94.49,0 165.23,-20.74 212.22,-62.23 47,-41.49 70.49,-98.72 70.49,-171.7l0 -278.07c0,-20.6 8.75,-30.9 26.25,-30.9l26.25 0zm1087.63 542.89c113.49,0 206.48,-18.24 278.97,-54.73 14.49,-7.06 26.49,-4.71 36,7.06l15 19.42c6,7.65 8.62,15.45 7.87,23.39 -0.75,7.94 -4.87,14.86 -12.37,20.74 -24,17.66 -63.12,33.69 -117.36,48.11 -54.24,14.42 -123.61,21.63 -208.1,21.63 -136.49,0 -237.85,-24.87 -304.09,-74.59 -66.24,-49.73 -99.37,-131.38 -99.37,-244.96 0,-113.58 33.12,-195.24 99.37,-244.96 66.24,-49.73 167.6,-74.59 304.09,-74.59 83.49,0 152.36,7.21 206.6,21.63 54.24,14.42 93.36,30.45 117.36,48.11 7.5,5.89 11.62,12.8 12.37,20.74 0.75,7.94 -1.88,15.74 -7.87,23.39l-15 19.42c-9,12.36 -21,14.71 -36,7.06 -74.99,-36.49 -167.48,-54.73 -277.47,-54.73 -118.99,0 -202.6,18.69 -250.85,56.05 -48.24,37.37 -72.37,96.66 -72.37,177.87 0,81.21 24.12,140.51 72.37,177.87 48.24,37.37 131.86,56.05 250.85,56.05zm1711.56 -542.89c17.5,0 26.25,10.3 26.25,30.9l0 24.72c0,20.6 -8.75,30.9 -26.25,30.9l-312.71 0 0 500.52c0,20.6 -8.75,30.9 -26.25,30.9l-26.25 0c-17.5,0 -26.25,-10.3 -26.25,-30.9l0 -500.52 -312.71 0c-17.5,0 -26.25,-10.3 -26.25,-30.9l0 -24.72c0,-20.6 8.75,-30.9 26.25,-30.9l365.21 0 338.96 0zm714.18 617.93c-17.5,0 -26.25,-10.3 -26.25,-30.9l0 -556.13c0,-20.6 8.75,-30.9 26.25,-30.9l26.25 0c17.5,0 26.25,10.3 26.25,30.9l0 556.13c0,20.6 -8.75,30.9 -26.25,30.9l-26.25 0zm1112.38 -628.52c135.49,0 236.1,24.72 301.84,74.15 65.74,49.43 98.61,131.24 98.61,245.41 0,112.4 -33.12,193.76 -99.36,244.08 -66.24,50.32 -166.61,75.48 -301.09,75.48l-4.5 0c-134.98,0 -235.6,-25.16 -301.84,-75.48 -66.24,-50.32 -99.37,-131.68 -99.37,-244.08 0,-114.17 33,-195.97 98.99,-245.41 65.99,-49.43 166.73,-74.15 302.21,-74.15l4.5 0zm0 553.49c115.49,0 197.73,-18.98 246.72,-56.94 49,-37.96 73.49,-96.95 73.49,-176.99 0,-81.21 -24.25,-140.51 -72.74,-177.87 -48.5,-37.37 -130.99,-56.05 -247.47,-56.05l-4.5 0c-116.48,0 -199.1,18.69 -247.85,56.05 -48.74,37.37 -73.12,96.66 -73.12,177.87 0,80.04 24.5,139.03 73.49,176.99 48.99,37.96 131.49,56.94 247.47,56.94l4.5 0zm1743.81 -542.89c17.5,0 26.25,10.3 26.25,30.9l0 556.13c0,20.6 -8.75,30.9 -26.25,30.9l-26.25 0c-17,0 -30.74,-5 -41.24,-15.01l-542.94 -489.04 0 473.16c0,20.6 -8.75,30.9 -26.25,30.9l-26.25 0c-17.5,0 -26.25,-10.3 -26.25,-30.9l0 -556.13c0,-20.6 8.75,-30.9 26.25,-30.9l26.25 0c17,0 30.74,5 41.24,15.01l542.94 488.16 0 -472.27c0,-20.6 8.75,-30.9 26.25,-30.9l26.25 0z"
   id="path1" />
 </g>
</svg>
