<?xml version="1.0" encoding="UTF-8"?>
<svg version="1.1" xmlns="http://www.w3.org/2000/svg" width="3840" height="1073">
<path d="M0 0 C0.67276978 0.08485657 1.34553955 0.16971313 2.03869629 0.25714111 C50.7596593 6.49832806 97.88932618 20.40325359 142 42 C142.91974609 42.44956055 143.83949219 42.89912109 144.78710938 43.36230469 C171.56694382 56.5952705 196.27140089 73.3371322 219.16210938 92.47070312 C220.85131472 93.87627994 222.55561765 95.26050918 224.265625 96.640625 C232.40182666 103.30458511 239.86299403 110.65203012 247.3125 118.0625 C247.82474121 118.56947418 248.33698242 119.07644836 248.86474609 119.5987854 C254.98770621 125.67300443 260.71944664 131.8573187 266.08203125 138.62280273 C267.87071616 140.83976111 269.73631278 142.9261699 271.6875 145 C332.04777475 212.4262593 362.49293442 310.71935629 364 400 C364.02046387 400.95938477 364.04092773 401.91876953 364.06201172 402.90722656 C365.29567012 468.30131717 353.43215909 532.54736168 331.67584229 594.08380127 C331.05496686 595.84415383 330.44189654 597.60725414 329.82958984 599.37060547 C318.14040692 632.89883797 302.02826138 665.23049541 284.0625 695.8125 C283.49152588 696.78751465 282.92055176 697.7625293 282.33227539 698.76708984 C281.11184294 700.80606257 279.84624766 702.81853797 278.54180908 704.8048172 C276.47968456 708.04432722 274.86437094 711.38384266 273.2375946 714.86031342 C269.28829164 722.63744985 265.08482805 730.89489187 256.67030525 734.37848663 C247.51757059 736.39887666 238.2061039 736.07447272 228.89107561 735.78557491 C224.65688018 735.68103096 220.42344853 735.71706436 216.18832397 735.73522949 C208.8669031 735.747761 201.55065006 735.67306758 194.23052979 735.53752136 C183.64807392 735.34169522 173.06809347 735.27989314 162.48402238 735.24980956 C145.30987454 735.1973989 128.1384766 735.03801183 110.96582031 734.81054688 C94.29343338 734.58993928 77.62179574 734.42021464 60.94824219 734.31835938 C59.91894529 734.31205401 58.8896484 734.30574865 57.82916069 734.29925221 C52.66500688 734.26792923 47.50084779 734.23760074 42.33668518 734.20776653 C-0.44411373 733.95933028 -43.22191435 733.53694515 -86 733 C-84.97783101 725.66794709 -83.95577033 718.35021763 -82.59466553 711.07279968 C-82.40340382 710.04340026 -82.40340382 710.04340026 -82.20827824 708.99320489 C-81.78975331 706.74453233 -81.36707202 704.49666364 -80.94433594 702.2487793 C-80.63710795 700.60289439 -80.33014352 698.95696027 -80.02341747 697.31098175 C-79.18915757 692.83818427 -78.35125362 688.36607636 -77.51271701 683.89407897 C-76.61285759 679.09136076 -75.71648627 674.28799149 -74.81971741 669.48469543 C-73.2754421 661.21568496 -71.72908993 652.94706516 -70.18130493 644.67871094 C-67.72288804 631.54549022 -65.26872548 618.41147632 -62.81518555 605.27734375 C-61.98280075 600.82174161 -61.15038279 596.36614567 -60.31794739 591.91055298 C-60.11139595 590.80498129 -59.90484452 589.69940961 -59.69203395 588.56033576 C-58.22129778 580.68851951 -56.74997291 572.81681343 -55.27836609 564.94515991 C-50.21038349 537.83597464 -45.14847036 510.72567065 -40.09765625 483.61328125 C-39.94415301 482.78930037 -39.79064978 481.96531949 -39.63249493 481.11636949 C-37.95733792 472.12425157 -36.28250558 463.13207321 -34.60784912 454.13986206 C-31.74957618 438.79213653 -28.88999064 423.44465552 -26.0304594 408.09716439 C-25.57487569 405.65196343 -25.11930344 403.20676033 -24.66373444 400.76155663 C-19.47192278 372.89533567 -14.27746634 345.02960811 -9.08203125 317.1640625 C-8.80051456 315.65415096 -8.80051456 315.65415096 -8.51331067 314.11373615 C-5.18127393 296.24242014 -1.84914101 278.37112205 1.48330814 260.49988294 C1.83464705 258.61571226 2.18597908 256.73154031 2.5373041 254.84736705 C3.39364153 250.25483017 4.25008952 245.66231396 5.10678196 241.06984329 C6.71834087 232.43002416 8.32803184 223.78986567 9.9332428 215.14886475 C10.53045414 211.9354622 11.12791805 208.72210672 11.72558594 205.50878906 C11.86863564 204.73957044 12.01168535 203.97035182 12.1590699 203.17782354 C13.9849803 193.36586214 15.84780265 183.5619739 17.75097656 173.76464844 C18.32877323 170.76476005 18.90563175 167.76469304 19.48212051 164.76455307 C19.98259099 162.18470073 20.49792911 159.60816766 21.01461792 157.03152466 C23.3385242 146.01822731 23.3385242 146.01822731 22 135 C21.01936935 133.65235713 20.02145361 132.31697012 19 131 C19 130.34 19 129.68 19 129 C17.67661368 128.31379969 16.34050052 127.65213539 15 127 C14.294136 126.65245131 13.588272 126.30490263 12.86101818 125.94682217 C9.18907724 124.73163413 5.73475316 124.71358074 1.91120911 124.72584534 C0.69644403 124.71799032 0.69644403 124.71799032 -0.54286176 124.70997661 C-3.25412916 124.69498562 -5.96520768 124.69427166 -8.67651367 124.69360352 C-10.62159544 124.68598132 -12.56667419 124.67755371 -14.51174927 124.66838074 C-19.7950198 124.6464322 -25.07823244 124.6376361 -30.36154342 124.63255429 C-33.66410937 124.62891051 -36.96666017 124.62267026 -40.26922035 124.6155529 C-51.79610484 124.59105514 -63.32294433 124.57800623 -74.84985352 124.57446289 C-85.58521907 124.57082954 -96.3202984 124.54094923 -107.0555765 124.49905831 C-116.27869716 124.46433313 -125.50172308 124.44891405 -134.72490865 124.44821686 C-140.23057117 124.44742467 -145.73594226 124.43871295 -151.24153709 124.41021919 C-156.4233577 124.3840013 -161.60464605 124.38185433 -166.78650284 124.39787483 C-168.68352356 124.39968647 -170.58057515 124.39302448 -172.47752953 124.37705612 C-187.77604841 124.22071883 -187.77604841 124.22071883 -200.84941864 131.62555695 C-204.61405017 135.47991714 -205.70108265 140.11297345 -206.7746582 145.24194336 C-206.9404025 146.01167197 -207.10614679 146.78140059 -207.27691364 147.57445431 C-210.01118418 160.51676632 -212.36386869 173.53992834 -214.78388834 186.54390812 C-215.55115089 190.6630107 -216.32200042 194.78144224 -217.09237671 198.89996338 C-218.60031038 206.96462757 -220.10497131 215.02989904 -221.6085515 223.0953759 C-223.3868871 232.6338474 -225.16879733 242.17165018 -226.95077646 251.70944154 C-231.08223474 273.82346082 -235.20771903 295.93859288 -239.33172446 318.05400306 C-240.6016191 324.86391769 -241.87171462 331.67379482 -243.14196777 338.48364258 C-243.31593464 339.41628195 -243.48990151 340.34892133 -243.6691401 341.3098225 C-244.01823381 343.18131695 -244.36732765 345.05281139 -244.7164216 346.9243058 C-250.38034971 377.28902525 -256.04243103 407.6540888 -261.70117188 438.01977539 C-270.05549713 482.84996212 -278.4187965 527.67845932 -286.79306126 572.50492573 C-288.86550369 583.59862727 -290.93726392 594.69245601 -293.0084492 605.78639233 C-294.27092066 612.54859435 -295.53345838 619.310784 -296.79598165 626.07297635 C-297.11141628 627.76248888 -297.42684646 629.45200224 -297.74227214 631.14151645 C-301.7545936 652.63268918 -305.77047966 674.12319035 -309.79192126 695.6126585 C-312.80483829 711.71293039 -315.81491666 727.8137309 -318.82241344 743.91501617 C-320.66945632 753.80288117 -322.51901333 763.69026894 -324.37194902 773.57703137 C-325.62442396 780.26112921 -326.87385298 786.94579183 -328.12088221 793.63090777 C-328.83898166 797.47998312 -329.55844728 801.32878984 -330.28160667 805.17691803 C-330.94500449 808.70717913 -331.60449082 812.23814828 -332.26095641 815.76970482 C-332.60994543 817.64159657 -332.96305356 819.51271895 -333.31634045 821.38380432 C-336.51176603 835.0609577 -336.51176603 835.0609577 -333 848 C-329.3061567 851.87501273 -326.04077966 853.92173001 -320.59451467 854.13061053 C-319.14430832 854.13840578 -317.69406618 854.1406401 -316.24384022 854.1386652 C-315.44177793 854.14150742 -314.63971565 854.14434964 -313.81334844 854.14727798 C-311.10299785 854.15565588 -308.39268984 854.15689561 -305.68232727 854.15821838 C-303.72870649 854.16278163 -301.7750867 854.1677813 -299.82146806 854.17318195 C-294.43530384 854.18679952 -289.04914595 854.19419186 -283.66296899 854.20060861 C-277.86132396 854.2085967 -272.05969217 854.22229993 -266.25805664 854.23532104 C-256.20042141 854.25710643 -246.14278485 854.27524336 -236.08513832 854.29092598 C-221.54333783 854.31360586 -207.00155185 854.34174796 -192.45976379 854.37124526 C-168.86860896 854.4190327 -145.27744771 854.46221071 -121.6862793 854.50268555 C-98.76505059 854.54202151 -75.8438272 854.58344066 -52.92260742 854.62768555 C-52.21631355 854.62904808 -51.51001969 854.63041061 -50.78232297 854.63181442 C-43.68955359 854.64549957 -36.5967843 854.65922713 -29.50401506 854.67298577 C-15.05469439 854.70101375 -0.60537318 854.72875864 13.84394836 854.7563324 C14.84052495 854.7582347 14.84052495 854.7582347 15.8572344 854.76017542 C60.23814763 854.84485873 104.61907299 854.92292164 149 855 C149 855.66 149 856.32 149 857 C147.15625 858.70703125 147.15625 858.70703125 144.5 860.8125 C143.489375 861.61945312 142.47875 862.42640625 141.4375 863.2578125 C140.88191406 863.69899414 140.32632813 864.14017578 139.75390625 864.59472656 C137.94604326 866.04323149 136.15881805 867.51419388 134.375 868.9921875 C124.20439791 877.39880746 113.72369138 885.3135503 103 893 C102.08766602 893.65436035 101.17533203 894.3087207 100.23535156 894.98291016 C87.87681648 903.8065065 75.33026347 912.06939944 62.20605469 919.70654297 C60.18893729 920.88922202 58.18878599 922.09441229 56.1953125 923.31640625 C-13.95593624 966.30895032 -92.60090081 993.14993759 -174 1004 C-174.67434082 1004.09194641 -175.34868164 1004.18389282 -176.04345703 1004.27862549 C-216.4918775 1009.7535973 -260.60791811 1009.87753505 -301 1004 C-302.40017959 1003.80434172 -303.80040959 1003.60904392 -305.20068359 1003.4140625 C-355.08816671 996.36502287 -401.90295181 981.48217047 -447 959 C-447.80840332 958.5978125 -448.61680664 958.195625 -449.44970703 957.78125 C-461.10726585 951.93088722 -472.10373497 945.15700512 -483 938 C-483.79728516 937.47889648 -484.59457031 936.95779297 -485.41601562 936.42089844 C-496.34789868 929.23772184 -506.67374395 921.54758369 -516.61108398 913.0402832 C-518.44596468 911.4731807 -520.28971811 909.9194974 -522.14086914 908.37182617 C-530.1499646 901.63993809 -537.72749046 894.58800754 -545.09741211 887.16333008 C-546.82248477 885.42745269 -548.55811991 883.7026491 -550.29492188 881.97851562 C-556.98935004 875.29234529 -563.12756789 868.42696531 -569 861 C-570.05995783 859.72876417 -571.12454946 858.46136677 -572.1953125 857.19921875 C-632.12195549 785.74164815 -660.44769169 692.11664369 -663 600 C-663.02336426 599.21077148 -663.04672852 598.42154297 -663.07080078 597.60839844 C-665.14612107 516.44419155 -644.4146579 435.48692525 -611 362 C-610.5270752 360.95634277 -610.05415039 359.91268555 -609.56689453 358.83740234 C-603.32291744 345.15916926 -596.29365972 332.03959358 -588.7421875 319.04199219 C-587.46538392 316.8125958 -586.21195561 314.57728043 -584.9765625 312.32519531 C-579.52934053 302.42597745 -573.56740365 292.98929241 -567.25 283.625 C-566.27296573 282.16890746 -565.295997 280.71277094 -564.3190918 279.2565918 C-551.66257862 260.43650814 -538.34832454 242.30719611 -523.6015625 225.0703125 C-521.25742299 222.32265955 -519.00116684 219.51199772 -516.75 216.6875 C-511.70274005 210.48244565 -506.20199377 204.72356007 -500.703125 198.921875 C-497.54729614 195.5919759 -494.45294645 192.21444081 -491.375 188.8125 C-483.73624812 180.45654787 -475.85195276 172.25814348 -467.2109375 164.9296875 C-464.7583038 162.78904961 -462.38957121 160.57191671 -460.01708984 158.34326172 C-454.42146329 153.08812164 -448.75502946 148.02999078 -442.7578125 143.23046875 C-440.27261825 141.2204887 -437.8418371 139.15842906 -435.42138672 137.07128906 C-427.56880063 130.31735007 -419.35270808 124.11882207 -411 118 C-410.28150879 117.47116211 -409.56301758 116.94232422 -408.82275391 116.39746094 C-383.98314764 98.13966415 -358.01403396 81.84580773 -331 67 C-330.16629883 66.53916016 -329.33259766 66.07832031 -328.47363281 65.60351562 C-302.73868248 51.46116426 -275.65857633 39.79982602 -248 30 C-247.36187378 29.77268188 -246.72374756 29.54536377 -246.06628418 29.31115723 C-202.95756479 13.97262869 -158.50728318 3.84577068 -113 -1 C-111.96439941 -1.11714355 -110.92879883 -1.23428711 -109.86181641 -1.35498047 C-73.73903777 -5.31372172 -36.04141229 -4.5554079 0 0 Z " fill="#FF0020" transform="translate(694,33)"/>
<path d="M0 0 C2.6978594 -0.00660911 5.39568435 -0.01669856 8.09352875 -0.02777863 C70.00162598 -0.26462136 146.43765731 0.17312277 195.18123627 44.1807785 C196.09518158 45.00062225 197.00912689 45.820466 197.95076752 46.6651535 C215.43096369 63.19188443 225.62577924 85.5485873 226.41951752 109.70812225 C227.07525701 147.36883645 217.83374958 187.00445078 191.27205658 215.04332733 C189.91954297 216.43335833 188.55064789 217.80739181 187.18123627 219.1807785 C186.4271347 219.95808319 185.67303314 220.73538788 184.89608002 221.53624725 C165.43949313 240.3921162 137.94822941 249.07798345 112.30623627 255.5557785 C111.2653183 255.81882782 110.22440033 256.08187714 109.15193939 256.35289764 C104.99317629 257.37237031 101.48938875 258.1807785 97.18123627 258.1807785 C104.18779571 271.24936336 111.2067831 284.30738491 118.43514252 297.25499725 C121.97407271 303.59451969 125.48460371 309.94973209 128.99373627 316.3057785 C129.33802673 316.92919128 129.6823172 317.55260406 130.03704071 318.19490814 C135.22868335 327.59890467 140.35554875 337.03616532 145.4512558 346.49254608 C149.70079773 354.35281423 154.09632948 362.1248419 158.51790619 369.8892746 C161.851385 375.76487797 165.06879683 381.68541748 168.18123627 387.6807785 C171.8276315 394.70423718 175.64368089 401.61460498 179.55623627 408.4932785 C184.05284039 416.40981622 188.53110279 424.33511035 192.93123627 432.3057785 C193.44476654 433.22399384 193.95829681 434.14220917 194.48738861 435.08824921 C194.95870209 435.946362 195.43001556 436.80447479 195.91561127 437.688591 C196.33036713 438.43769745 196.74512299 439.18680389 197.1724472 439.95861053 C198.86874544 443.69522877 199.36200527 446.34266767 198.49373627 450.3682785 C196.98537447 453.60048236 196.41630159 453.96545014 193.18123627 455.1807785 C190.77763081 455.43804741 190.77763081 455.43804741 188.0532608 455.44820404 C186.49948982 455.46099899 186.49948982 455.46099899 184.91432953 455.47405243 C183.78335846 455.47314606 182.65238739 455.47223969 181.48714447 455.47130585 C179.69378914 455.48138168 179.69378914 455.48138168 177.86420441 455.49166107 C174.58704239 455.50740644 171.31003248 455.51401641 168.03283715 455.51529264 C165.98241549 455.51671573 163.93202024 455.52098842 161.88160515 455.52628708 C154.7195022 455.54479004 147.55747365 455.55295788 140.3953476 455.55138397 C133.73450291 455.55018439 127.07398322 455.57124976 120.4132207 455.6028713 C114.68394435 455.62909464 108.95477367 455.63974865 103.22543782 455.63847315 C99.80845573 455.63796504 96.39176213 455.64356333 92.97484016 455.66482925 C89.15705514 455.68447724 85.34009979 455.67865407 81.52230072 455.66661835 C79.84102585 455.68347687 79.84102585 455.68347687 78.12578583 455.70067596 C70.72158576 455.64151708 64.11647198 454.67956328 58.40655708 449.60292625 C54.136624 445.10950126 51.5882562 439.56796168 48.95076752 434.0245285 C48.47483658 433.04576752 47.99890564 432.06700653 47.50855255 431.05858612 C45.99374738 427.93731387 44.49357875 424.80926349 42.99373627 421.6807785 C42.00705593 419.64255799 41.01943269 417.60479365 40.03084564 415.56749725 C34.67238228 404.50774396 29.37820999 393.41710893 24.08104706 382.32790375 C20.38089241 374.58618994 16.64478917 366.86248794 12.88774872 359.14824677 C11.07231494 355.42038499 9.25962829 351.6911876 7.44686127 347.9620285 C6.90248665 346.84228134 6.90248665 346.84228134 6.34711456 345.69991302 C3.49289351 339.82690729 0.64954923 333.94872968 -2.18717194 328.06725311 C-3.30909073 325.74176558 -4.43260475 323.41704693 -5.5577774 321.09313202 C-8.39845503 315.22228912 -11.21950509 309.34371778 -14.00252533 303.44536591 C-15.45399442 300.37347407 -16.91506644 297.30620031 -18.37732697 294.23943329 C-19.08310131 292.75291437 -19.78444803 291.26428446 -20.48114777 289.77349091 C-21.44971896 287.70192476 -22.43325985 285.63811284 -23.42032623 283.57530975 C-23.98058502 282.38784149 -24.54084381 281.20037323 -25.11808014 279.97692108 C-26.90745048 277.03496609 -27.56551861 276.11480287 -30.81876373 275.1807785 C-33.81757563 274.81520985 -33.81757563 274.81520985 -37.11563873 274.766716 C-38.32091217 274.72804413 -39.52618561 274.68937225 -40.76798248 274.6495285 C-42.0222403 274.618591 -43.27649811 274.5876535 -44.56876373 274.5557785 C-45.8384903 274.51710663 -47.10821686 274.47843475 -48.41641998 274.438591 C-51.55039764 274.34433604 -54.68438823 274.26031217 -57.81876373 274.1807785 C-57.93123727 274.94187298 -58.0437108 275.70296745 -58.15959263 276.4871254 C-59.46751355 285.17849018 -60.98031475 293.82299085 -62.56851959 302.46691132 C-62.83994513 303.95171858 -63.11122688 305.43655214 -63.38237762 306.92140961 C-64.11191676 310.91320664 -64.8439222 314.90454713 -65.5767715 318.89573765 C-66.03574951 321.39557008 -66.49432659 323.89547577 -66.95279884 326.395401 C-68.39099798 334.23656097 -69.8308204 342.07742043 -71.27287287 349.91787267 C-72.93133398 358.93511546 -74.58424773 367.95335219 -76.2324571 376.97247434 C-77.5120212 383.97239105 -78.79659271 390.97137741 -80.08491617 397.96968722 C-80.852173 402.13814724 -81.61733067 406.30696586 -82.37721825 410.47677612 C-83.09135428 414.39478674 -83.81172781 418.3116005 -84.53678703 422.22760391 C-84.8006499 423.65859305 -85.06232129 425.08998841 -85.32155228 426.52182388 C-89.18089505 447.81700566 -89.18089505 447.81700566 -94.38126373 451.6807785 C-94.9806778 452.144841 -95.58009186 452.6089035 -96.19766998 453.0870285 C-99.21629776 455.12369303 -101.117817 455.31089802 -104.73314667 455.32794952 C-105.7720253 455.33510483 -106.81090393 455.34226013 -107.88126373 455.34963226 C-109.59793243 455.35366562 -109.59793243 455.35366562 -111.34928131 455.35778046 C-113.15183632 455.36763725 -113.15183632 455.36763725 -114.99080658 455.37769318 C-118.29258438 455.39404837 -121.59429806 455.40565533 -124.89610124 455.41389871 C-126.9588682 455.4190487 -129.02163067 455.42512444 -131.08439445 455.43140984 C-137.53807831 455.45046256 -143.99175071 455.46469336 -150.44545728 455.47302181 C-157.895598 455.48279479 -165.34544165 455.50911519 -172.79547769 455.5495227 C-178.55351286 455.57968155 -184.31146287 455.59449045 -190.06957549 455.59780282 C-193.50883419 455.60015365 -196.94777556 455.60911752 -200.38694954 455.63426399 C-204.22475065 455.66187156 -208.06216082 455.65771425 -211.90006256 455.65074921 C-213.03843567 455.66355927 -214.17680878 455.67636932 -215.34967804 455.68956757 C-223.06332574 455.63842634 -223.06332574 455.63842634 -226.98165131 453.26468658 C-230.1984289 449.61577064 -231.0239933 447.2847202 -230.96673584 442.37992096 C-230.65094473 437.686674 -229.66429744 433.08585515 -228.78458405 428.47179413 C-228.56558787 427.29567818 -228.3465917 426.11956223 -228.12095928 424.9078064 C-227.5138238 421.65395586 -226.90107055 418.40125476 -226.2859695 415.14890671 C-225.6234288 411.63786644 -224.96834521 408.12543468 -224.31243134 404.61315155 C-223.17283125 398.5160596 -222.02883337 392.41980646 -220.8819046 386.32408905 C-219.04527132 376.56205425 -217.2177328 366.79832812 -215.39176178 357.03429413 C-214.76396738 353.67772142 -214.13613339 350.32115612 -213.50829315 346.96459198 C-213.3515135 346.12636508 -213.19473385 345.28813819 -213.0332033 344.42451048 C-211.9055413 338.39594831 -210.77669317 332.36760891 -209.64742279 326.33934784 C-203.80792061 295.16341569 -198.01959537 263.9781029 -192.24487877 232.7901144 C-190.36027276 222.61238103 -188.47255772 212.43522868 -186.5826242 202.25848329 C-185.28200773 195.25479572 -183.98194607 188.25100514 -182.68204498 181.24718475 C-182.54004905 180.48215362 -182.39805312 179.71712248 -182.25175428 178.92890859 C-178.48117445 158.61250645 -174.73367501 138.29202635 -171.01439339 117.96616971 C-170.79993227 116.79415964 -170.79993227 116.79415964 -170.58113861 115.5984726 C-170.36720456 114.42932656 -170.36720456 114.42932656 -170.14894861 113.23656142 C-168.34133959 103.36087431 -166.52432631 93.48691516 -164.70625401 83.61314964 C-163.25961086 75.75376569 -161.82170381 67.89288285 -160.39531428 60.02979749 C-159.32354504 54.12601258 -158.23751961 48.22494526 -157.1460743 42.32476234 C-156.70390245 39.92111296 -156.26657604 37.5165664 -155.83445549 35.11108971 C-155.24634113 31.84070936 -154.64118569 28.57393322 -154.03165436 25.30748749 C-153.78247615 23.88574093 -153.78247615 23.88574093 -153.52826405 22.43527222 C-152.25745312 15.77241034 -150.39194479 11.65246944 -145.42325592 6.87975311 C-136.65653813 1.16100648 -121.86841867 2.57521793 -111.56876373 2.1182785 C-110.68186859 2.07753204 -109.79497345 2.03678558 -108.8812027 1.99480438 C-72.60188784 0.3440368 -36.31096658 0.07267932 0 0 Z M-13.08707428 62.68907928 C-14.69959328 62.8265004 -14.69959328 62.8265004 -16.34468842 62.96669769 C-17.16113327 63.03734436 -17.97757813 63.10799103 -18.81876373 63.1807785 C-20.99149787 74.7544092 -23.16383401 86.32811357 -25.33145905 97.90270233 C-25.74925494 100.13344294 -26.16705998 102.36418184 -26.5848732 104.5949192 C-26.87622149 106.15046225 -27.16755474 107.7060081 -27.45887375 109.26155663 C-29.51207259 120.22383055 -31.5716579 131.18488716 -33.63621235 142.14502811 C-35.20225082 150.45952684 -36.76501987 158.77463645 -38.32579327 167.09012508 C-39.29363391 172.24568293 -40.26315931 177.40091232 -41.23645782 182.55544281 C-42.16283422 187.46170068 -43.0849449 192.36874158 -44.00390434 197.27639389 C-44.34629007 199.10064654 -44.6902479 200.92460491 -45.03586006 202.74824905 C-45.5109751 205.25648855 -45.98048748 207.76571523 -46.44864655 210.27526093 C-46.58878142 211.00778737 -46.7289163 211.74031382 -46.87329769 212.49503803 C-47.54013921 216.10287963 -47.97547128 219.50996295 -47.81876373 223.1807785 C-15.98793068 229.10279396 22.08661894 220.63320512 50.18123627 205.1807785 C51.15705658 204.65999725 52.13287689 204.139216 53.13826752 203.6026535 C71.07645764 193.20218017 84.27659054 174.77394567 89.80672455 154.93712616 C95.2755431 133.30779229 96.60366756 112.67083369 86.09529877 92.30187225 C76.60992261 76.83490174 60.11882152 70.01128928 43.27693939 65.68126678 C25.37902244 61.40695064 5.18915596 61.12123298 -13.08707428 62.68907928 Z " fill="#000000" transform="translate(2983.81876373291,310.81922149658203)"/>
<path d="M0 0 C1.22357045 -0.00384115 2.4471409 -0.00768229 3.70778924 -0.01163983 C5.07797775 -0.0108595 6.44816621 -0.00998069 7.81835461 -0.00901413 C9.26432299 -0.0115963 10.71029066 -0.01460905 12.15625733 -0.01801753 C16.14404154 -0.02610818 20.13180778 -0.02787825 24.11959922 -0.028615 C28.41486495 -0.03046197 32.71012127 -0.0380075 37.00538158 -0.04475021 C46.40405817 -0.05834872 55.80273051 -0.06436061 65.2014153 -0.06876087 C71.06665116 -0.07152073 76.93188536 -0.07575761 82.79712009 -0.08026505 C99.02658802 -0.09245969 115.25605463 -0.10275862 131.48552704 -0.10614014 C132.52483054 -0.1063597 133.56413403 -0.10657927 134.63493158 -0.10680549 C135.67676482 -0.10702377 136.71859807 -0.10724204 137.79200202 -0.10746694 C139.90325916 -0.10791041 142.01451629 -0.10835697 144.12577343 -0.10880661 C145.17303666 -0.10902804 146.22029989 -0.10924947 147.29929837 -0.10947761 C164.27367843 -0.11342671 181.24801558 -0.13088328 198.22237907 -0.15416613 C215.63708935 -0.17786077 233.05177808 -0.19034113 250.46650475 -0.19150805 C260.24932197 -0.19242588 270.03208329 -0.19820515 279.81488514 -0.21632767 C288.144374 -0.23170321 296.4737897 -0.23686422 304.80329005 -0.22858956 C309.05501296 -0.224674 313.30658843 -0.22565664 317.55829334 -0.23964691 C321.44876748 -0.25233175 325.33898258 -0.25123635 329.22945609 -0.2390562 C330.63863048 -0.23708975 332.04782289 -0.24022112 333.45697192 -0.24890056 C335.36955956 -0.25993717 337.28223213 -0.25074433 339.19482422 -0.24050903 C340.78973213 -0.24140467 340.78973213 -0.24140467 342.4168604 -0.24231839 C345.7241383 0.1884754 347.6021346 1.18509203 350.28617382 3.13142776 C354.04699056 8.64383051 352.55041795 16.16535244 351.50760937 22.39412308 C351.15611386 24.25120192 350.79413537 26.10632054 350.42289257 27.95955276 C350.23024319 28.95219131 350.0375938 29.94482986 349.83910656 30.96754837 C349.43259696 33.04912168 349.02141589 35.12978772 348.6057539 37.20955276 C347.9731386 40.3841136 347.36015812 43.5620371 346.74906445 46.74080276 C346.3498401 48.77228231 345.94948836 50.80354069 345.54789257 52.83455276 C345.36651241 53.77840836 345.18513226 54.72226395 344.99825573 55.69472122 C343.32817271 63.93770407 341.07162771 69.07843019 334.28617382 74.13142776 C331.02581548 75.76160693 327.42902373 75.28544651 323.84546947 75.28964615 C322.96171332 75.29458413 322.07795716 75.2995221 321.16742051 75.30460972 C318.18861499 75.32004002 315.20983111 75.32836027 312.23099804 75.33675003 C310.10264932 75.34632421 307.97430253 75.35633401 305.84595776 75.36674881 C300.05288475 75.39385381 294.25980356 75.41483302 288.46670198 75.4347508 C282.41815817 75.45657592 276.36963978 75.48398156 270.32111645 75.51080704 C258.86058992 75.56078101 247.40004932 75.60570235 235.93949521 75.6488294 C222.8949402 75.69816163 209.85041068 75.75309461 196.80588031 75.80850899 C169.96600192 75.92240124 143.12609908 76.02922446 116.28617382 76.13142776 C115.93245457 78.07248398 115.93245457 78.07248398 115.57158947 80.05275345 C113.35112463 92.23672678 111.12929043 104.4204497 108.90610886 116.60392761 C107.76314429 122.86785135 106.62066551 129.13186288 105.47928905 135.3960762 C104.37816794 141.43925565 103.27578106 147.48220293 102.17250919 153.52499008 C101.75142114 155.83261993 101.33079236 158.14033364 100.91062641 160.44813156 C100.32290638 163.6757934 99.73356693 166.90315557 99.14383984 170.1304512 C98.96977108 171.08854691 98.79570232 172.04664261 98.61635876 173.03377151 C98.45511517 173.91434219 98.29387157 174.79491287 98.12774181 175.70216751 C97.98855107 176.4654121 97.84936033 177.22865669 97.70595169 178.01502991 C97.29751444 180.07425166 96.8136719 182.09976606 96.28617382 184.13142776 C97.73261288 184.12451432 97.73261288 184.12451432 99.20827293 184.1174612 C122.65998481 184.00651645 146.11166269 183.92432429 169.56358147 183.87236691 C180.90471943 183.84657352 192.24568415 183.81140117 203.58671093 183.7542305 C213.47032037 183.70443044 223.35380436 183.67214501 233.23753577 183.66098529 C238.47207848 183.65446081 243.70626225 183.63910266 248.94069004 183.60277748 C253.86631524 183.56887182 258.79143323 183.55836387 263.71716404 183.56588936 C265.52599372 183.56451238 267.33484013 183.55454755 269.14356899 183.53540039 C271.61223565 183.51054627 274.07898379 183.51649338 276.54769421 183.53015518 C277.26462828 183.51559097 277.98156235 183.50102677 278.7202217 183.48602122 C282.5849766 183.5438922 284.1703029 184.03743546 287.2122879 186.50503635 C290.15733059 190.23467006 290.5351712 192.79605606 290.03412914 197.4953804 C289.60557778 200.39640934 289.09345482 203.27208986 288.55570507 206.15486526 C288.26816608 207.74507996 288.26816608 207.74507996 287.97481823 209.3674202 C287.56699556 211.6057674 287.1539797 213.84317382 286.73612499 216.07966995 C286.10270731 219.48474487 285.49323228 222.89351156 284.8857832 226.30330276 C284.4855351 228.483256 284.08388778 230.66295288 283.68070507 232.84236526 C283.41167118 234.35991913 283.41167118 234.35991913 283.13720226 235.90813065 C281.74555422 243.2120537 280.21642394 249.79918787 274.22367382 254.56892776 C269.62629259 257.01434331 265.9507275 257.27240523 260.86413097 257.25168228 C260.10202696 257.25253671 259.33992295 257.25339113 258.55472487 257.25427145 C255.99358586 257.2559224 253.43251191 257.25041114 250.8713789 257.24495316 C249.0384474 257.24467117 247.20551578 257.24482923 245.37258434 257.24539566 C240.38943999 257.24568321 235.40631959 257.23979329 230.42318082 257.2328217 C225.21814517 257.22658114 220.013109 257.22598381 214.80807018 257.2247963 C204.94835948 257.22168506 195.08865984 257.21347445 185.22895402 257.20344681 C174.00539936 257.19227924 162.78184418 257.18677359 151.55828536 257.18175137 C128.46757538 257.17129168 105.37687522 257.15369624 82.28617382 257.13142776 C82.21154163 258.0259797 82.21154163 258.0259797 82.13540173 258.9386034 C81.55283526 265.35839235 80.56333604 271.62098449 79.35258007 277.949543 C79.15896893 278.98006287 78.96535778 280.01058273 78.76587963 281.07233047 C78.13097791 284.44569554 77.48996275 287.81786536 76.84867382 291.19002151 C76.4037797 293.54502915 75.95920453 295.90009705 75.51493359 298.25522232 C74.58618672 303.17369174 73.65458243 308.09160808 72.72074413 313.00911331 C71.52259526 319.3189488 70.33009669 325.62983549 69.1395216 331.94110394 C68.22330818 336.79602282 67.30490596 341.65052546 66.38575268 346.50488853 C65.94508101 348.83287067 65.50491414 351.16094842 65.06525707 353.48912239 C64.4522074 356.73284486 63.83640101 359.97603142 63.21976757 363.21907425 C63.03791912 364.18375626 62.85607067 365.14843826 62.66871166 366.14235306 C62.41639278 367.46471214 62.41639278 367.46471214 62.15897655 368.81378555 C62.01371029 369.57971244 61.86844402 370.34563932 61.71877575 371.13477612 C61.28617382 373.13142776 61.28617382 373.13142776 60.28617382 376.13142776 C61.4041567 376.12774059 62.52213959 376.12405342 63.67400074 376.12025452 C90.86473939 376.03149474 118.05545927 375.96574301 145.24631214 375.92417908 C158.39555666 375.90354532 171.54470553 375.87540903 184.69388866 375.82966995 C196.15341263 375.78982728 207.61286733 375.76400087 219.07245862 375.75507379 C225.14142039 375.74985473 231.21018399 375.73757083 237.2790823 375.70850754 C242.99013312 375.68137925 248.70090392 375.67297765 254.41201305 375.67899704 C256.50905789 375.67789566 258.606112 375.66992657 260.70310116 375.65460587 C263.56525346 375.63471872 266.42634712 375.63948419 269.28852367 375.6504097 C270.11927335 375.63875833 270.95002303 375.62710697 271.80594695 375.61510253 C277.06803093 375.66943523 280.15931774 376.56467871 284.28617382 380.13142776 C287.26860548 387.09027216 285.83905898 393.22738751 284.43461132 400.47908401 C284.11165585 402.23508171 284.11165585 402.23508171 283.78217602 404.02655411 C283.32436649 406.4931317 282.85824184 408.95817873 282.38431835 411.42171097 C281.66362677 415.18113217 280.97500129 418.94542257 280.29008007 422.71150589 C279.84015946 425.11355569 279.38839787 427.51526155 278.93461132 429.91658401 C278.73024456 431.03654266 278.5258778 432.15650131 278.31531811 433.3103981 C276.90119054 440.53841808 275.50236077 446.05288564 270.03534985 451.28592205 C264.7652725 454.61738551 258.09276615 453.6839111 252.08988476 453.64609146 C250.62054656 453.65141792 249.15121381 453.65848418 247.68189144 453.66713852 C243.64795382 453.68577965 239.61438296 453.67945594 235.58043003 453.66898549 C231.22860921 453.66199768 226.87686404 453.67798816 222.52506542 453.69098282 C214.00135785 453.71263462 205.47778373 453.71249299 196.95405769 453.70435727 C190.02727436 453.69805998 183.10052998 453.69919182 176.17374706 453.70562935 C175.18826374 453.706531 174.20278041 453.70743266 173.18743396 453.70836164 C171.18550554 453.71021282 169.18357713 453.71207538 167.18164873 453.7139492 C148.40518252 453.73053159 129.62879143 453.72180451 110.85232973 453.70496362 C93.66867148 453.69026425 76.48518804 453.70489763 59.3015523 453.73373378 C41.6618207 453.76311516 24.02216982 453.77410387 6.38241482 453.76455158 C4.38781009 453.76352901 2.39320534 453.76253441 0.39860058 453.76156807 C-0.58280848 453.76109168 -1.56421753 453.76061529 -2.57536626 453.76012446 C-9.49463821 453.75795878 -16.41383385 453.76777255 -23.33308887 453.7823391 C-31.76425078 453.7998408 -40.19518972 453.79977612 -48.62634277 453.77698744 C-52.92893053 453.76582586 -57.23112515 453.76272585 -61.53369617 453.78128815 C-65.47173237 453.79805934 -69.40903153 453.79178835 -73.34701967 453.76707136 C-74.77223722 453.76217654 -76.19751383 453.76573523 -77.62268209 453.7785588 C-89.59755454 453.87853981 -89.59755454 453.87853981 -93.5359869 450.79961872 C-96.45170703 447.22740926 -96.97384801 444.60150319 -96.71382618 440.13142776 C-96.04854433 434.78875839 -95.05921745 429.5237958 -94.04634571 424.23933792 C-93.74364602 422.61217882 -93.44201137 420.9848213 -93.14134884 419.35728455 C-92.31481036 414.90000602 -91.47337859 410.44565094 -90.62950706 405.99162626 C-89.72444407 401.20000064 -88.83343082 396.4057621 -87.94081593 391.61180496 C-86.39699932 383.33065131 -84.84466519 375.05113205 -83.28651905 366.77266312 C-81.0324504 354.79611919 -78.7918781 342.81708239 -76.55534577 330.83725262 C-75.51775359 325.27948382 -74.47969266 319.7218026 -73.44151783 314.16414261 C-73.23426071 313.05461841 -73.02700359 311.94509421 -72.81346595 310.80194807 C-71.32856584 302.85425975 -69.84117649 294.90703961 -68.35258961 286.96004105 C-62.6461541 256.49405201 -56.96946028 226.02268907 -51.32320118 195.54549026 C-51.13656391 194.53811892 -50.94992663 193.53074758 -50.75763369 192.49284983 C-48.91778773 182.56200926 -47.07862385 172.6310425 -45.24005401 162.6999656 C-43.16235195 151.4772392 -41.08301492 140.25481686 -39.00239444 129.03263116 C-38.50689004 126.35985018 -38.01150545 123.68704703 -37.51615047 121.01423836 C-36.09911294 113.36886854 -34.68145349 105.72361769 -33.25980198 98.0791043 C-32.51836301 94.09208617 -31.7775378 90.1049542 -31.03706837 86.11775589 C-30.82341558 84.9674254 -30.82341558 84.9674254 -30.60544658 83.79385591 C-28.72826194 73.68031213 -26.88321223 63.56149151 -25.0688951 53.43648767 C-24.27297717 49.00220037 -23.46919208 44.5693284 -22.66695499 40.13618088 C-22.05652075 36.74031498 -21.45931477 33.34230841 -20.86272144 29.9439888 C-20.49884273 27.93049648 -20.13431365 25.91712153 -19.76900196 23.9038887 C-19.5428187 22.57685047 -19.5428187 22.57685047 -19.31206608 21.22300339 C-17.70365251 12.52422433 -14.98689675 6.34906534 -7.71382618 1.13142776 C-5.03827356 -0.20634855 -2.9976779 0.00351586 0 0 Z " fill="#000000" transform="translate(1828.7138261795044,312.8685722351074)"/>
<path d="M0 0 C0.89817444 -0.00511093 1.79634888 -0.01022186 2.72174072 -0.01548767 C5.68508605 -0.02936588 8.64819834 -0.02842828 11.61157227 -0.02612305 C13.67513617 -0.03001083 15.73869928 -0.03434568 17.80226135 -0.03910828 C22.12552485 -0.0465666 26.44870668 -0.04628192 30.77197266 -0.04101562 C36.30800111 -0.03522033 41.84369508 -0.05215545 47.37966824 -0.0753603 C51.64079233 -0.09010227 55.90183595 -0.09096872 60.16298103 -0.08785057 C62.20389532 -0.08836351 64.24481414 -0.09359607 66.28570366 -0.10366249 C69.14121021 -0.11601895 71.99606612 -0.10923993 74.8515625 -0.09765625 C75.6917543 -0.10529999 76.53194611 -0.11294373 77.39759827 -0.12081909 C83.83647995 -0.0631776 87.98246395 1.30322873 92.69726562 5.93212891 C95.47987977 9.56138752 96.55894382 13.37278805 97.68188477 17.75512695 C97.92427383 18.64950974 98.1666629 19.54389252 98.41639709 20.46537781 C99.29337995 23.73039049 100.14253369 27.00198577 100.99047852 30.2746582 C101.33771694 31.60016216 101.68545527 32.92553523 102.03363037 34.25079346 C104.796837 44.77399441 107.51265378 55.30921858 110.22258759 65.846241 C112.17944493 73.44994518 114.14404668 81.05165555 116.1076355 88.65362358 C116.6171613 90.6262844 117.12660084 92.5989675 117.63595581 94.57167244 C122.93620149 115.09793909 128.28717499 135.61079226 133.65431595 156.11965561 C134.36923824 158.85152492 135.08403784 161.5834263 135.79879761 164.31533813 C136.03635364 165.22330863 136.27390966 166.13127913 136.51866436 167.06676388 C136.75678246 167.97688512 136.99490057 168.88700636 137.24023438 169.82470703 C137.72254743 171.66814729 138.2048625 173.51158703 138.68717957 175.35502625 C138.92656942 176.2699906 139.16595928 177.18495495 139.41260338 178.12764549 C139.89687339 179.97849352 140.38116829 181.82933504 140.86548805 183.68017006 C146.08265401 203.61780043 151.28486193 223.55932274 156.48498535 243.50140381 C164.28349557 273.40780501 172.08477828 303.31348651 179.89634132 333.21648121 C181.12109335 337.90488743 182.3455928 342.59335921 183.56939697 347.28201294 C188.00760696 364.28506 192.44617255 381.28773341 196.97835159 398.26601982 C197.49607948 400.20585 198.01298622 402.14589928 198.52987671 404.08595276 C200.04374627 409.76694451 201.56325181 415.44626018 203.09643555 421.12207031 C203.61084458 423.04656435 204.12502172 424.9711204 204.63891602 426.89575195 C204.86685852 427.72880859 205.09480103 428.56186523 205.32965088 429.42016602 C208.86445242 442.74473374 208.86445242 442.74473374 206.80297852 448.7121582 C204.8785308 451.43292911 204.01686838 452.09408229 200.99047852 453.2746582 C198.6621666 453.53192711 198.6621666 453.53192711 196.04559326 453.54208374 C195.05037155 453.55061371 194.05514984 453.55914368 193.0297699 453.56793213 C191.94398148 453.56702576 190.85819305 453.56611938 189.73950195 453.56518555 C188.59109329 453.57190277 187.44268463 453.57862 186.25947571 453.58554077 C182.45622449 453.60456583 178.65314938 453.60844749 174.84985352 453.6105957 C172.20672533 453.61702124 169.56359787 453.62374942 166.92047119 453.63076782 C161.37559869 453.64355625 155.83077393 453.64653311 150.28588867 453.64526367 C143.88972392 453.64406362 137.49389736 453.66513881 131.09781814 453.696751 C124.93298082 453.72612784 118.76830483 453.73323774 112.60340118 453.73204422 C109.98637767 453.73440256 107.36935159 453.74323909 104.75237274 453.75870895 C101.08764255 453.77834095 97.42377783 453.77254036 93.7590332 453.76049805 C92.68134171 453.77173706 91.60365021 453.78297607 90.49330139 453.79455566 C82.86405512 453.73096748 77.30954244 452.36933471 71.65039062 447.09277344 C69.39690176 443.26691346 68.44339384 439.48504202 67.43188477 435.18481445 C67.09334724 433.81565636 67.09334724 433.81565636 66.74797058 432.4188385 C66.00366388 429.39454938 65.27818715 426.36607864 64.55297852 423.3371582 C64.03676572 421.22150709 63.51949408 419.10611407 63.0012207 416.9909668 C61.61002773 411.2977135 60.23590847 405.60046183 58.86505127 399.90228271 C57.66310698 394.91675973 56.45047687 389.93385662 55.23814392 384.95085144 C53.73460186 378.76816544 52.23664281 372.58413326 50.74047852 366.3996582 C50.30543503 364.60203537 50.30543503 364.60203537 49.86160278 362.76809692 C49.04244646 359.3777072 48.22673475 355.98651018 47.41235352 352.5949707 C47.16607712 351.57637466 46.91980072 350.55777863 46.6660614 349.50831604 C46.33309807 348.11672523 46.33309807 348.11672523 45.9934082 346.69702148 C45.79865906 345.88693634 45.60390991 345.0768512 45.40325928 344.24221802 C44.99047852 342.2746582 44.99047852 342.2746582 44.99047852 340.2746582 C23.90222663 339.74953823 2.81665198 339.38727498 -18.27754879 339.21506882 C-28.07425677 339.13135683 -37.86496321 338.99583246 -47.65869141 338.73510742 C-56.20268824 338.50778725 -64.74149958 338.38095587 -73.28861243 338.37114739 C-77.81106123 338.3625404 -82.32073241 338.30616424 -86.83997917 338.12902069 C-104.5370254 336.78119736 -104.5370254 336.78119736 -120.65119743 342.53724313 C-127.27060242 349.01050339 -131.0784353 357.55835803 -134.59272575 365.98100281 C-136.44875007 370.29574231 -138.78056591 374.17908285 -141.29858398 378.13012695 C-142.03604237 379.36563836 -142.76977265 380.60339197 -143.49780273 381.84448242 C-145.80241208 385.74675022 -148.11251287 389.64574559 -150.42358398 393.54418945 C-150.81177307 394.19923462 -151.19996216 394.85427979 -151.59991455 395.5291748 C-156.5791709 403.92804074 -161.59342968 412.3057304 -166.63842773 420.6652832 C-168.82176308 424.28412588 -170.97422421 427.91823943 -173.09936523 431.5715332 C-183.89176812 449.97484743 -183.89176812 449.97484743 -194.00952148 453.2746582 C-196.84255459 453.46702958 -199.57630501 453.55831213 -202.40820312 453.54931641 C-203.65787117 453.5569828 -203.65787117 453.5569828 -204.93278503 453.56480408 C-207.67848958 453.57867111 -210.4239424 453.57774591 -213.16967773 453.57543945 C-215.08109124 453.57932712 -216.99250388 453.58366194 -218.90391541 453.58842468 C-222.90602421 453.59588004 -226.90804478 453.59559994 -230.91015625 453.59033203 C-236.04058869 453.58452918 -241.17066109 453.60149139 -246.30103397 453.6246767 C-250.246395 453.6393993 -254.19166891 453.64028791 -258.13705254 453.63716698 C-260.0289017 453.63768063 -261.92075568 453.64292662 -263.8125782 453.6529789 C-266.45536964 453.66530151 -269.09745443 453.65857763 -271.74023438 453.64697266 C-272.52216156 453.65461639 -273.30408875 453.66226013 -274.10971069 453.6701355 C-277.35507422 453.63860162 -279.62592672 453.49250671 -282.47741699 451.87310791 C-284.90927973 449.33593743 -285.00287839 447.13547663 -285.2277832 443.72338867 C-284.82736974 439.23105417 -282.52768982 436.01932715 -280.07202148 432.3371582 C-278.95219228 430.56765071 -277.8324026 428.7981182 -276.71264648 427.02856445 C-276.11000977 426.09544434 -275.50737305 425.16232422 -274.88647461 424.20092773 C-271.6195361 419.10759722 -268.48244317 413.93447474 -265.32202148 408.7746582 C-263.9526522 406.55304363 -262.58285357 404.33169365 -261.21264648 402.1105957 C-256.97170702 395.22351554 -252.76615305 388.31532103 -248.57202148 381.3996582 C-248.22107422 380.82100006 -247.87012695 380.24234192 -247.50854492 379.64614868 C-245.72647259 376.70735256 -243.94500273 373.76819179 -242.16381836 370.82885742 C-236.44805901 361.39746504 -230.72180505 351.97242864 -224.99682617 342.54663086 C-223.71867438 340.44223402 -222.44066767 338.33774905 -221.1628418 336.2331543 C-214.5416733 325.32995598 -207.89058564 314.44607731 -201.19702148 303.5871582 C-195.62347848 294.54380485 -190.08146146 285.48214413 -184.57202148 276.3996582 C-184.22022827 275.81973114 -183.86843506 275.23980408 -183.50598145 274.64230347 C-181.00601681 270.52044855 -178.50759517 266.39765933 -176.00952148 262.2746582 C-173.15641334 257.56568258 -170.30262202 252.85712292 -167.44702148 248.1496582 C-167.09487579 247.56911682 -166.7427301 246.98857544 -166.37991333 246.39044189 C-160.63479585 236.92226186 -154.8393066 227.4856813 -149.02661133 218.05883789 C-142.01726762 206.68220003 -135.08897863 195.25682518 -128.16381836 183.82885742 C-122.44805901 174.39746504 -116.72180505 164.97242864 -110.99682617 155.54663086 C-109.71867438 153.44223402 -108.44066767 151.33774905 -107.1628418 149.2331543 C-100.5416733 138.32995598 -93.89058564 127.44607731 -87.19702148 116.5871582 C-81.62347848 107.54380485 -76.08146146 98.48214413 -70.57202148 89.3996582 C-70.22022827 88.81973114 -69.86843506 88.23980408 -69.50598145 87.64230347 C-67.00601681 83.52044855 -64.50759517 79.39765933 -62.00952148 75.2746582 C-51.63493089 58.15168504 -41.25324266 41.03366376 -30.70581055 24.01635742 C-29.20307064 21.58749024 -27.71088823 19.15249154 -26.22045898 16.71606445 C-25.44272939 15.46419269 -24.66417897 14.2128302 -23.88452148 12.9621582 C-23.26319336 11.95540039 -22.64186523 10.94864258 -22.00170898 9.91137695 C-15.98189427 1.94397512 -9.60710824 -0.02825975 0 0 Z M-4.00952148 142.2746582 C-8.97238838 148.86024102 -12.93426585 156.18853881 -17.00952148 163.3371582 C-18.00641491 165.07527151 -19.00331786 166.81337949 -20.00094604 168.55107117 C-20.67943471 169.73294118 -21.35759552 170.91499946 -22.03543091 172.09724426 C-25.29231603 177.77586152 -28.58316932 183.43430823 -31.88452148 189.0871582 C-32.44977539 190.05532471 -33.0150293 191.02349121 -33.59741211 192.02099609 C-38.95026178 201.18289172 -44.31815929 210.33598456 -49.68823242 219.48779297 C-53.02591749 225.17704172 -56.35880928 230.86888966 -59.67358398 236.5715332 C-60.25092285 237.56459473 -60.82826172 238.55765625 -61.4230957 239.58081055 C-62.55259963 241.52368621 -63.681837 243.46671686 -64.81079102 245.40991211 C-67.90302695 250.71614232 -71.0349771 255.99587565 -74.21264648 261.2512207 C-74.56225433 261.83013062 -74.91186218 262.40904053 -75.27206421 263.00549316 C-76.97147796 265.81813188 -78.67621567 268.62731188 -80.38891602 271.43188477 C-80.9933252 272.42929687 -81.59773438 273.42670898 -82.22045898 274.4543457 C-82.75977051 275.33848145 -83.29908203 276.22261719 -83.85473633 277.13354492 C-85.16775421 279.16259569 -85.16775421 279.16259569 -85.00952148 281.2746582 C-47.05952148 281.2746582 -9.10952148 281.2746582 29.99047852 281.2746582 C28.65674774 273.93913894 27.23117743 266.75951495 25.45605469 259.53686523 C25.21020126 258.52535904 24.96434784 257.51385284 24.71104431 256.47169495 C23.90483401 253.15788405 23.09415055 249.845185 22.28344727 246.5324707 C21.71506309 244.1996058 21.14697862 241.86666786 20.57917786 239.53366089 C19.08622641 233.40251749 17.58955263 227.272289 16.09197998 221.14227295 C14.28763938 213.75393496 12.48729805 206.36462173 10.68676472 198.97535515 C9.28234258 193.21179174 7.87724151 187.44839754 6.46977234 181.68557739 C3.26557314 168.55900211 0.10406517 155.42302664 -3.00952148 142.2746582 C-3.33952148 142.2746582 -3.66952148 142.2746582 -4.00952148 142.2746582 Z " fill="#000000" transform="translate(2467.009521484375,312.725341796875)"/>
<path d="M0 0 C1.05701111 -0.00852997 2.11402222 -0.01705994 3.20306396 -0.02584839 C4.35744965 -0.02494202 5.51183533 -0.02403564 6.70120239 -0.02310181 C7.92109863 -0.02981903 9.14099487 -0.03653625 10.39785767 -0.04345703 C13.74096841 -0.0592013 17.08383072 -0.06581213 20.42696142 -0.0670886 C22.51689179 -0.06851114 24.60679621 -0.07278268 26.69672012 -0.07808304 C33.99152527 -0.09658136 41.28625738 -0.10475392 48.58108521 -0.10317993 C55.37490729 -0.10197863 62.16841163 -0.12307893 68.96215332 -0.15466726 C74.80008652 -0.1808416 80.63791603 -0.19154675 86.47590744 -0.19026911 C89.96041992 -0.1897598 93.44464996 -0.19542519 96.92910385 -0.21662521 C100.816804 -0.23963329 104.70407028 -0.23047954 108.59182739 -0.21841431 C110.31733322 -0.23527283 110.31733322 -0.23527283 112.07769775 -0.25247192 C118.27910501 -0.20351561 122.07815451 0.06567736 126.77590942 4.26742554 C129.54789608 7.79540855 129.06400047 11.98613085 128.77590942 16.26742554 C128.0990102 21.00497397 127.1985972 25.69809815 126.2986145 30.39730835 C126.02918488 31.83313869 125.76040075 33.26909029 125.49220467 34.70515156 C124.75677381 38.63304804 124.01240261 42.55920438 123.26659083 46.48514104 C122.46559709 50.71054013 121.67316712 54.93754527 120.87980652 59.16438293 C119.50887471 66.4624647 118.13295612 73.75959129 116.75363159 81.05609131 C114.57739084 92.56891373 112.41120525 104.08361527 110.24710083 115.59872437 C109.69553502 118.53327962 109.14395636 121.46783246 108.59237576 124.40238494 C108.22209506 126.37239467 107.85182849 128.34240707 107.48157597 130.3124221 C106.35665288 136.29744479 105.2309102 142.28231267 104.10451984 148.26705939 C98.83989447 176.23923253 93.6058001 204.2169431 88.40481567 232.20101929 C88.23880962 233.09420475 88.07280356 233.9873902 87.90176702 234.90764189 C85.79512293 246.24314377 83.690392 257.57900047 81.58639145 268.91499329 C80.65733806 273.92049469 79.72798469 278.92594037 78.79852295 283.93136597 C78.64805494 284.74168083 78.49758693 285.5519957 78.34255928 286.38686556 C77.5985224 290.39363694 76.85443468 294.40039888 76.1102953 298.40715122 C75.82162282 299.96149253 75.53295037 301.51583385 75.24427795 303.07017517 C75.10366363 303.82729044 74.96304931 304.58440571 74.81817394 305.36446387 C74.02199235 309.65159774 73.22617479 313.93879894 72.43072063 318.22606784 C68.90196714 337.2441685 65.34681184 356.2571996 61.77590942 375.26742554 C62.84327678 375.26981389 63.91064413 375.27220224 65.01035595 375.27466297 C90.96575105 375.33342265 116.92105306 375.40928356 142.87634563 375.50314045 C155.42806344 375.5481316 167.97975267 375.58753861 180.53152466 375.61386108 C191.4699411 375.63681427 202.40826734 375.67018227 213.34661227 375.7161271 C219.13992427 375.74009543 224.93314672 375.75880055 230.72650719 375.76503944 C236.1773997 375.77107394 241.628063 375.7910146 247.07887077 375.82170105 C249.08116313 375.83050753 251.08348541 375.83419848 253.08579636 375.8324337 C255.81684825 375.83078638 258.54719688 375.84743394 261.27815247 375.86869812 C262.0729055 375.86385054 262.86765854 375.85900297 263.68649501 375.8540085 C268.22168435 375.91239803 271.16722844 376.45797322 274.77590942 379.26742554 C279.34925125 386.08513485 276.33843078 395.93452768 274.91262817 403.40023804 C274.71997879 404.43631195 274.52732941 405.47238586 274.32884216 406.53985596 C273.92172987 408.71721388 273.51054588 410.89381406 273.0954895 413.06967163 C272.46437817 416.38733297 271.85076253 419.70790386 271.23880005 423.02914429 C270.83945482 425.15303903 270.4390984 427.27674395 270.03762817 429.40023804 C269.76555794 430.87860641 269.76555794 430.87860641 269.48799133 432.38684082 C267.82994647 440.96836775 266.10346732 447.07707203 258.77590942 452.26742554 C255.60769744 453.3234962 253.3761868 453.39486908 250.04835701 453.3988533 C248.84717928 453.40269445 247.64600155 453.40653559 246.4084245 453.41049314 C245.06869 453.40971285 243.72895556 453.40883406 242.38922119 453.40786743 C240.97126334 453.41045041 239.55330622 453.41346339 238.13535011 453.41687083 C234.22963618 453.4249518 230.32394062 453.42673101 226.41821933 453.4274683 C222.20954312 453.42931692 218.00087649 453.43686324 213.79220581 453.44360352 C204.5857311 453.4571946 195.37926073 453.46321261 186.17277765 453.46761417 C180.42697081 453.47037498 174.68116566 453.47461201 168.93535995 453.47911835 C153.03440265 453.49131145 137.1334467 453.50161106 121.23248482 453.50499344 C120.21448972 453.505213 119.19649462 453.50543257 118.14765119 453.50565879 C117.12719068 453.50587707 116.10673017 453.50609535 115.05534661 453.50632024 C112.98742874 453.50676371 110.91951088 453.50721027 108.85159302 453.50765991 C107.82582959 453.50788134 106.80006617 453.50810277 105.743219 453.50833091 C89.11486128 453.51228059 72.48654733 453.52973959 55.85820653 453.55301943 C38.79602842 453.57671436 21.7338723 453.58919442 4.67167747 453.59036136 C-4.91215214 453.5912791 -14.49592469 453.59705653 -24.07973862 453.61518097 C-32.23902388 453.63055682 -40.39823447 453.6357173 -48.55753146 453.62744287 C-52.72217602 453.62352756 -56.88667006 453.62450869 -61.05129623 453.63850021 C-64.86216409 453.65118646 -68.67276751 453.65008844 -72.48363473 453.6379095 C-73.86384273 453.63594331 -75.24406913 453.63907325 -76.62425123 453.64775386 C-78.49775568 453.65879322 -80.37134686 453.64959626 -82.24485588 453.63936234 C-83.80705417 453.64025797 -83.80705417 453.64025797 -85.40081203 453.64117169 C-88.70677745 453.20352736 -90.55447751 452.24091569 -93.22409058 450.26742554 C-98.73139981 442.00646169 -94.15820662 429.0711045 -92.39889526 419.90560913 C-92.09118392 418.2626247 -91.78435619 416.61947457 -91.47833061 414.97617531 C-90.63942603 410.48523353 -89.78822656 405.99669869 -88.93499041 401.508461 C-88.01644854 396.66444436 -87.10963807 391.81823103 -86.20147705 386.97225952 C-84.62872771 378.58839773 -83.04896464 370.20588299 -81.46438599 361.82424927 C-78.95768642 348.56446473 -76.46455399 335.3021488 -73.97360229 322.03939819 C-73.12184949 317.50517214 -72.26999522 312.97096515 -71.41809082 308.43676758 C-71.20545322 307.30497885 -70.99281562 306.17319011 -70.77373445 305.00710475 C-69.24662823 296.87998091 -67.71750342 288.75323831 -66.18756104 280.62664795 C-60.09134639 248.24217212 -54.03137782 215.85107679 -47.99752808 183.45492554 C-47.58358827 181.23277304 -47.16964277 179.01062159 -46.75569153 176.78847122 C-43.56378844 159.65328848 -40.37357756 142.51779073 -37.18373108 125.38222504 C-35.13607797 114.38278434 -33.08761459 103.38349551 -31.03701222 92.38460422 C-30.19215267 87.85277131 -29.3477634 83.3208523 -28.5048027 78.78866577 C-28.19016085 77.09733935 -27.87551076 75.40601445 -27.56085205 73.71469116 C-27.3313947 72.48092865 -27.3313947 72.48092865 -27.09730184 71.22224164 C-26.35293369 67.22406051 -25.60476917 63.22665741 -24.84809685 59.23078537 C-24.5552975 57.68398144 -24.26251749 56.13717385 -23.96975708 54.59036255 C-23.825956 53.83116414 -23.68215492 53.07196573 -23.53399622 52.2897613 C-22.61604129 47.41917265 -21.73686726 42.54291334 -20.87975371 37.6612643 C-20.29128912 34.32850667 -19.68498365 30.99913107 -19.07578635 27.67010808 C-18.79308122 26.10089281 -18.5183345 24.53021895 -18.25230622 22.95809054 C-15.52969294 6.90274403 -15.52969294 6.90274403 -9.22409058 2.26742554 C-6.06872567 0.32451958 -3.68310898 0.0134519 0 0 Z " fill="#000000" transform="translate(1381.2240905761719,312.7325744628906)"/>
<path d="M0 0 C3.582906 -0.14533755 7.16505417 -0.23407931 10.75 -0.3125 C11.76578125 -0.35439453 12.7815625 -0.39628906 13.828125 -0.43945312 C14.8078125 -0.45556641 15.7875 -0.47167969 16.796875 -0.48828125 C18.14797363 -0.52755737 18.14797363 -0.52755737 19.52636719 -0.56762695 C23.86742326 0.42851945 25.36375514 4.02816156 27.68481445 7.57348633 C28.2387085 8.48380615 28.79260254 9.39412598 29.36328125 10.33203125 C29.99516357 11.36561768 30.6270459 12.3992041 31.27807617 13.46411133 C31.94943604 14.56907959 32.6207959 15.67404785 33.3125 16.8125 C34.75092208 19.16769667 36.1919085 21.52132118 37.6328125 23.875 C38.18013283 24.77004997 38.18013283 24.77004997 38.73851013 25.68318176 C42.34961044 31.58377996 46.01348448 37.45089539 49.6875 43.3125 C54.3122086 50.6957856 58.92048557 58.08859311 63.5 65.5 C68.27213998 73.22057464 73.06581462 80.92744363 77.875 88.625 C78.48150391 89.59630859 79.08800781 90.56761719 79.71289062 91.56835938 C83.77592255 98.06653448 87.87632326 104.54014956 92 111 C95.26682516 96.01051213 98.16650425 80.96359219 100.953125 65.87890625 C101.21347282 64.47053057 101.21347282 64.47053057 101.4790802 63.03370285 C103.11291964 54.19027782 104.73896512 45.3454226 106.36328125 36.50024414 C107.26056078 31.61555921 108.16160028 26.73157972 109.06490326 21.84800529 C109.57147093 19.10247047 110.07352114 16.3561333 110.57550049 13.60975647 C110.88244298 11.94885765 111.18961951 10.28800206 111.49707031 8.62719727 C111.63523163 7.86433411 111.77339294 7.10147095 111.91574097 6.31549072 C112.88608198 1.11391802 112.88608198 1.11391802 114 0 C115.34267413 -0.08631874 116.68974322 -0.10706473 118.03515625 -0.09765625 C118.84404297 -0.09443359 119.65292969 -0.09121094 120.48632812 -0.08789062 C121.7615332 -0.07532227 121.7615332 -0.07532227 123.0625 -0.0625 C123.91650391 -0.05798828 124.77050781 -0.05347656 125.65039062 -0.04882812 C127.76695663 -0.03700373 129.88348685 -0.01906769 132 0 C133.17756834 3.53270502 132.78238201 5.20709122 132.10195923 8.84533691 C131.87759689 10.06517776 131.65323456 11.28501862 131.42207336 12.54182434 C131.16515094 13.89574846 130.90808115 15.24964463 130.65087891 16.60351562 C130.38600145 18.02752476 130.12178088 19.45165621 129.85816956 20.87590027 C129.13969268 24.74693492 128.41185248 28.61615639 127.68224001 32.48510551 C126.92083683 36.53065764 126.16761532 40.57773265 125.41342163 44.62463379 C124.14553283 51.42143654 122.87203629 58.21716874 121.59472656 65.01220703 C119.95458916 73.73754954 118.3233425 82.46452883 116.69503212 91.19208527 C115.29613476 98.68980891 113.893508 106.18683407 112.49009657 113.68371391 C112.03861941 116.09611761 111.58758694 118.50860418 111.13658524 120.9210968 C110.4279472 124.71025159 109.71699692 128.49896569 109.00424004 132.28734779 C108.74269528 133.6792025 108.4818667 135.07119199 108.22179985 136.46332359 C107.86718081 138.36080753 107.50967241 140.25775081 107.15200806 142.15466309 C106.95252375 143.21728111 106.75303944 144.27989914 106.54751015 145.37471771 C106 148 106 148 105 151 C102.30568602 151.27276519 99.63904455 151.46858303 96.9375 151.625 C96.18533203 151.70878906 95.43316406 151.79257813 94.65820312 151.87890625 C92.12840675 151.98842124 90.38659508 151.8715552 88 151 C85.04322725 148.03559686 83.07922435 144.61344223 81 141 C79.92815561 139.27797795 78.85524623 137.55661831 77.78125 135.8359375 C76.6845694 134.01738909 75.59093605 132.19700033 74.5 130.375 C69.60745208 122.27011332 64.65721442 114.20643178 59.625 106.1875 C53.69894645 96.73880536 47.83797162 87.25195254 42.00292969 77.74682617 C36.72997408 69.165691 31.404417 60.61840954 26.046875 52.08984375 C25.47195312 51.17332031 24.89703125 50.25679687 24.3046875 49.3125 C23.75393555 48.43464844 23.20318359 47.55679688 22.63574219 46.65234375 C20.44815153 43.10518182 18.3490912 39.50788882 16.26611328 35.8984375 C15.13338712 33.86003341 15.13338712 33.86003341 13 33 C12.94899611 33.67186655 12.89799223 34.3437331 12.84544277 35.03595924 C12.30239691 41.62265185 11.39829867 48.04101495 10.17407227 54.53271484 C9.99182098 55.52115387 9.8095697 56.5095929 9.62179565 57.52798462 C9.02505955 60.75659775 8.42101508 63.98379016 7.81640625 67.2109375 C7.39634881 69.47004844 6.97658943 71.72921482 6.55711365 73.98843384 C5.68028997 78.70433687 4.79982137 83.41954072 3.91674805 88.13427734 C2.78553783 94.17549508 1.66358066 100.21838826 0.54432774 106.26183128 C-0.31925716 110.91905037 -1.18774777 115.57534419 -2.05772591 120.23137283 C-2.47349205 122.45982159 -2.8877222 124.6885575 -3.30038261 126.91758347 C-3.87682466 130.02723081 -4.45986964 133.13556903 -5.04467773 136.24365234 C-5.21358017 137.1621698 -5.3824826 138.08068726 -5.5565033 139.02703857 C-5.71767639 139.87625885 -5.87884949 140.72547913 -6.04490662 141.60043335 C-6.18187675 142.33372046 -6.31884687 143.06700756 -6.45996761 143.82251549 C-7 146 -7 146 -9 151 C-15.27 151 -21.54 151 -28 151 C-26.7106482 141.6312686 -25.22442655 132.3472648 -23.49389648 123.04980469 C-23.24868733 121.72099558 -23.00372002 120.39214183 -22.75897217 119.06324768 C-22.10260988 115.50364353 -21.44270232 111.94470581 -20.78191638 108.38592052 C-20.22893257 105.40572606 -19.67779942 102.42519056 -19.12666947 99.4446528 C-17.82794796 92.42112682 -16.52639641 85.39812961 -15.22290039 78.37548828 C-13.87871684 71.13342318 -12.53884786 63.89056936 -11.20113128 56.64730716 C-10.04917507 50.41053797 -8.89486025 44.17420868 -7.7385717 37.93824124 C-7.04926784 34.22072784 -6.360802 30.50306446 -5.6744976 26.78499603 C-4.91203518 22.65516924 -4.14463346 18.52627556 -3.37670898 14.39746094 C-3.14967789 13.16429642 -2.92264679 11.9311319 -2.68873596 10.66059875 C-2.47989777 9.54217087 -2.27105957 8.42374298 -2.05589294 7.27142334 C-1.87505378 6.29591396 -1.69421461 5.32040459 -1.50789547 4.31533432 C-1 2 -1 2 0 0 Z " fill="#000000" transform="translate(3676,888)"/>
<path d="M0 0 C1.83872681 0.01135986 1.83872681 0.01135986 3.71459961 0.02294922 C20.76201874 0.3328406 35.1896703 4.90825676 47.76953125 16.828125 C60.44051495 30.8649693 64.80335072 48.97311056 63.97265625 67.4765625 C62.07184645 94.96438427 49.81342268 119.14255176 29.125 137.4375 C13.98301308 149.50859927 -4.34117721 157.55309464 -23.875 158.4375 C-24.55046875 158.47746094 -25.2259375 158.51742188 -25.921875 158.55859375 C-42.99382641 159.08819808 -60.01730275 154.43004656 -73 143.1875 C-86.88724718 130.07415514 -92.48597601 114.993213 -93.125 96 C-92.21377652 66.89445004 -80.36841369 41.48953743 -59.32421875 21.484375 C-43.05438537 6.69613496 -21.77305985 -0.18937016 0 0 Z M-46.76953125 35.44921875 C-62.20660538 53.7437197 -68.12341991 80.08164409 -66.875 103.4375 C-65.53787349 115.50506676 -60.8644652 126.47793944 -51.515625 134.44921875 C-40.99453037 142.2420171 -30.73052652 143.73746333 -17.875 142.4375 C-1.59794274 139.3127287 12.09947947 129.89289669 21.9375 116.6875 C35.13395757 96.23459617 40.90625837 70.93559319 37.62890625 46.78125 C34.93209997 34.95796372 28.83033903 25.30647173 18.52734375 18.7578125 C-4.87918856 5.89373458 -30.05400012 17.69973724 -46.76953125 35.44921875 Z " fill="#000000" transform="translate(3471.875,884.5625)"/>
<path d="M0 0 C13.35124649 9.71395748 20.23176427 24.01332747 23 40 C23.79648444 53.05148374 23.996425 66.45273358 20 79 C19.70198486 79.94746094 19.70198486 79.94746094 19.39794922 80.9140625 C11.68645983 104.85144978 -4.39991268 125.33926328 -26.74633789 137.13208008 C-46.83533454 147.39377599 -69.50723198 151.46330382 -91.50390625 144.96484375 C-108.0020811 138.90707235 -120.45525939 129.19310019 -128 113 C-136.49202913 90.65664286 -133.86746979 66.40999178 -124.17578125 44.81640625 C-120.29142879 36.56967194 -115.75169069 29.10169304 -110 22 C-109.39800781 21.23429688 -108.79601563 20.46859375 -108.17578125 19.6796875 C-83.67226538 -9.80672363 -32.85568509 -22.1788769 0 0 Z M-86 24 C-96.29707468 35.82582126 -101.67926853 49.88149391 -105 65 C-105.22558594 65.98226562 -105.45117188 66.96453125 -105.68359375 67.9765625 C-108.89265709 84.04401066 -108.25350293 101.01256429 -99.859375 115.390625 C-93.80574244 123.88605893 -85.32309069 130.03627071 -75 132 C-57.22363923 133.15974118 -42.15214551 129.24374831 -28.375 117.4375 C-11.21973309 101.03980185 -2.70536646 77.4141679 -1.796875 53.95703125 C-1.51874894 39.21459003 -3.4178515 26.50680076 -13.5625 15.125 C-14.366875 14.42375 -15.17125 13.7225 -16 13 C-16.7425 12.319375 -17.485 11.63875 -18.25 10.9375 C-41.05361185 -5.12868107 -68.60006334 5.44720729 -86 24 Z " fill="#000000" transform="translate(2366,895)"/>
<path d="M0 0 C0.96292969 0.42410156 1.92585938 0.84820313 2.91796875 1.28515625 C17.65216746 8.58112499 26.51998847 20.42939225 32 35.6796875 C38.98914943 58.88584771 34.22613252 83.8997452 23.125 105 C19.70036756 111.21982037 15.7801853 116.75264127 11 122 C10.12730469 122.96550781 9.25460937 123.93101562 8.35546875 124.92578125 C-7.79600166 142.20788217 -29.19878419 152.73271397 -53 154 C-53.70253906 154.04125 -54.40507813 154.0825 -55.12890625 154.125 C-73.13532984 154.65557602 -91.37795986 149.27739296 -104.75 136.9375 C-118.51340116 122.17494086 -121.9480753 104.51108174 -121.38671875 84.89453125 C-120.26143631 62.84680501 -110.62719311 41.38787376 -96 25 C-95.26265625 24.16855469 -94.5253125 23.33710937 -93.765625 22.48046875 C-71.63609539 -1.05927598 -30.52936064 -13.55452941 0 0 Z M-74.44140625 29.53125 C-84.21853673 40.78074023 -89.15343321 53.85066804 -93 68 C-93.23589844 68.85851562 -93.47179688 69.71703125 -93.71484375 70.6015625 C-97.62347063 87.20609422 -97.5479444 105.95518842 -88.4609375 120.8046875 C-87.97882813 121.52914062 -87.49671875 122.25359375 -87 123 C-86.401875 123.928125 -85.80375 124.85625 -85.1875 125.8125 C-76.83393833 134.16606167 -66.49769341 138.35429635 -54.75 138.5625 C-38.62448706 138.38696959 -25.36554823 131.20318144 -13.75 120.3125 C3.56809947 102.10629286 9.7027325 76.97893195 9.47045898 52.51342773 C9.06810535 39.27009204 5.59883832 28.46955752 -4.06640625 18.96875 C-26.36315002 0.14216134 -56.17366448 10.59125533 -74.44140625 29.53125 Z " fill="#000000" transform="translate(1614,889)"/>
<path d="M0 0 C1.63121292 -0.00855011 1.63121292 -0.00855011 3.29537964 -0.01727295 C5.58981363 -0.02668369 7.8842609 -0.03324124 10.17871094 -0.03710938 C13.64803298 -0.0467867 17.11675484 -0.07783698 20.5859375 -0.109375 C53.89130402 -0.26911225 53.89130402 -0.26911225 65.8046875 10.17578125 C72.87395493 17.54393315 75.73589478 24.51292629 75.9921875 34.703125 C75.62819339 46.76346303 71.52502625 58.71090075 62.5546875 67.203125 C57.07660636 71.84758509 51.07234507 75.10021453 44.5546875 78.015625 C43.91490967 78.3055835 43.27513184 78.59554199 42.6159668 78.89428711 C37.3985377 81.12638104 32.13648523 82.25018745 26.5546875 83.203125 C32.84449343 95.40608343 39.16008706 107.59218095 45.7421875 119.640625 C46.22880859 120.53201172 46.71542969 121.42339844 47.21679688 122.34179688 C49.61944766 126.72575004 52.05153528 131.09051435 54.52734375 135.43359375 C54.99567627 136.25996338 55.46400879 137.08633301 55.9465332 137.93774414 C56.82671794 139.48688826 57.71414677 141.03194773 58.61010742 142.57202148 C60.62953849 146.12871257 61.5546875 148.02509604 61.5546875 152.203125 C52.6446875 152.203125 43.7346875 152.203125 34.5546875 152.203125 C33.01039063 149.16351562 31.46609375 146.12390625 29.875 142.9921875 C28.34324225 139.98299298 26.81034466 136.97438167 25.27734375 133.96582031 C24.22895627 131.90685395 23.18171692 129.84730249 22.13574219 127.78710938 C19.12114756 121.85049885 16.08688486 115.92481112 13.01672363 110.01672363 C12.0552193 108.16636768 11.09734755 106.31411879 10.14343262 104.45983887 C8.8378801 101.93441837 7.50916302 99.42279054 6.171875 96.9140625 C5.6020842 95.80062973 5.6020842 95.80062973 5.02078247 94.66470337 C2.56894339 90.14707368 0.56223584 88.04330489 -4.4453125 86.203125 C-6.7173706 85.65264488 -6.7173706 85.65264488 -8.8203125 85.515625 C-10.0165625 85.4125 -11.2128125 85.309375 -12.4453125 85.203125 C-12.53095459 85.90268311 -12.61659668 86.60224121 -12.70483398 87.32299805 C-14.26459763 99.10877687 -16.55764714 110.75259856 -18.8137207 122.42114258 C-19.51468764 126.05122921 -20.20781427 129.6827574 -20.90039062 133.31445312 C-21.34328407 135.61727716 -21.78662663 137.92001487 -22.23046875 140.22265625 C-22.43777115 141.31101273 -22.64507355 142.3993692 -22.85865784 143.52070618 C-23.05233444 144.51652206 -23.24601105 145.51233795 -23.44555664 146.53833008 C-23.61495255 147.41765701 -23.78434845 148.29698395 -23.95887756 149.20295715 C-24.4453125 151.203125 -24.4453125 151.203125 -25.4453125 152.203125 C-27.08004132 152.29012842 -28.71845305 152.31013563 -30.35546875 152.30078125 C-31.34482422 152.29755859 -32.33417969 152.29433594 -33.35351562 152.29101562 C-34.39443359 152.28263672 -35.43535156 152.27425781 -36.5078125 152.265625 C-37.55259766 152.26111328 -38.59738281 152.25660156 -39.67382812 152.25195312 C-42.2643791 152.24012413 -44.85481809 152.22364189 -47.4453125 152.203125 C-48.47055563 148.25222831 -48.33610672 145.31933394 -47.59196472 141.32055664 C-47.27021019 139.55411301 -47.27021019 139.55411301 -46.94195557 137.75198364 C-46.69838318 136.46871185 -46.45481079 135.18544006 -46.20385742 133.86328125 C-45.95031018 132.49150846 -45.69756878 131.11958652 -45.4455719 129.74752808 C-44.7597379 126.02697098 -44.06227036 122.30868153 -43.36241317 118.5907402 C-42.63123268 114.69711999 -41.90981652 110.80169029 -41.18708801 106.90649414 C-39.97185764 100.36516829 -38.74934736 93.82523606 -37.5222168 87.28613281 C-36.10429218 79.72999281 -34.6965226 72.17201734 -33.29449767 64.61291218 C-31.94489095 57.33710945 -30.58937967 50.06242019 -29.23073769 42.78829956 C-28.65293912 39.69463889 -28.07697133 36.6006457 -27.50243187 33.50637817 C-26.82521516 29.86113306 -26.1427538 26.21690736 -25.45625877 22.57339859 C-25.0858477 20.60099182 -24.72047463 18.62764102 -24.35525513 16.65426636 C-24.13229263 15.47663727 -23.90933014 14.29900818 -23.67961121 13.08569336 C-23.48842303 12.06438828 -23.29723486 11.04308319 -23.10025311 9.99082947 C-21.52405635 3.28186885 -21.52405635 3.28186885 -19.4453125 1.203125 C-12.96141597 0.13808233 -6.56030071 0.02705913 0 0 Z M0.5546875 13.203125 C-0.88165099 20.86083288 -2.31605653 28.51890005 -3.74797821 36.17743492 C-4.41289874 39.73337858 -5.07849078 43.28919383 -5.74560547 46.84472656 C-6.38908056 50.27440205 -7.03080737 53.70440039 -7.67131042 57.13463211 C-8.03571645 59.0836661 -8.40194408 61.03235921 -8.76818848 62.98104858 C-8.98841675 64.16212189 -9.20864502 65.34319519 -9.43554688 66.56005859 C-9.63096069 67.60374603 -9.82637451 68.64743347 -10.02770996 69.7227478 C-10.50065446 72.11261782 -10.50065446 72.11261782 -10.4453125 74.203125 C7.46483179 74.69406297 26.03378409 74.82441546 40.02734375 61.8515625 C47.42698237 53.86525176 50.26643473 43.53735648 49.8984375 32.7734375 C49.13193559 27.0420937 46.58289136 22.90266148 42.4921875 18.890625 C34.05317521 12.4902243 23.48918209 12.80281757 13.3671875 13.015625 C12.12904297 13.02916016 10.89089844 13.04269531 9.61523438 13.05664062 C6.5945804 13.09162889 3.5748781 13.14071776 0.5546875 13.203125 Z " fill="#000000" transform="translate(2550.4453125,886.796875)"/>
<path d="M0 0 C1.06527924 -0.00570007 2.13055847 -0.01140015 3.2281189 -0.01727295 C5.47547424 -0.02668238 7.72284313 -0.03324071 9.97021484 -0.03710938 C13.36711385 -0.04678577 16.76339961 -0.07783686 20.16015625 -0.109375 C53.73747148 -0.27534582 53.73747148 -0.27534582 66.7109375 10.8671875 C73.88302728 18.72062581 76.15597807 27.20660848 76.05078125 37.62109375 C75.302922 47.28006461 71.84729274 55.71055905 65.7734375 63.203125 C65.29519531 63.80511719 64.81695313 64.40710938 64.32421875 65.02734375 C54.66767355 75.85143094 40.20262497 80.18350426 26.7734375 84.203125 C35.48547944 100.66161906 44.20560414 117.11310193 53.16015625 133.44140625 C53.57700684 134.20662598 53.99385742 134.9718457 54.42333984 135.76025391 C55.42058157 137.56466633 56.43993806 139.35689748 57.47119141 141.14208984 C58.03112793 142.12516113 58.59106445 143.10823242 59.16796875 144.12109375 C59.94877808 145.46917114 59.94877808 145.46917114 60.74536133 146.84448242 C61.7734375 149.203125 61.7734375 149.203125 60.7734375 152.203125 C52.1934375 152.203125 43.6134375 152.203125 34.7734375 152.203125 C29.89523238 142.99747986 25.05655124 133.77542366 20.3125 124.5 C19.92035309 123.73408035 19.52820618 122.96816071 19.12417603 122.17903137 C17.14377621 118.31055966 15.16701079 114.44030108 13.19580078 110.56713867 C10.06194174 104.42517095 6.91567857 98.28210718 3.5390625 92.26953125 C2.90919434 91.14140015 2.90919434 91.14140015 2.26660156 89.99047852 C0.25589767 87.5836173 -1.18915697 87.00444399 -4.2265625 86.203125 C-6.91851487 86.05341362 -9.52594733 86.11157872 -12.2265625 86.203125 C-12.3746788 87.00048065 -12.5227951 87.7978363 -12.67539978 88.61935425 C-14.07011003 96.12453081 -15.46770611 103.6291614 -16.86856747 111.13319206 C-17.58870342 114.99133076 -18.30771183 118.84967257 -19.02416992 122.70849609 C-19.71531084 126.4307332 -20.40937883 130.15241348 -21.10550117 133.87372208 C-21.37089464 135.29532459 -21.63522321 136.71712633 -21.89848137 138.13912582 C-22.26668035 140.1269624 -22.6389786 142.11403837 -23.01147461 144.10107422 C-23.22243271 145.23358612 -23.43339081 146.36609802 -23.65074158 147.53292847 C-24.2265625 150.203125 -24.2265625 150.203125 -25.2265625 152.203125 C-32.8165625 152.203125 -40.4065625 152.203125 -48.2265625 152.203125 C-47.63018083 143.4984003 -46.45944515 135.08557205 -44.86572266 126.51171875 C-44.62367354 125.18649164 -44.38210558 123.86117658 -44.14097595 122.53578186 C-43.49154279 118.97536635 -42.8346733 115.41636392 -42.17573595 111.85769653 C-41.62454821 108.87795986 -41.07668136 105.89761602 -40.52866113 102.91729546 C-39.23630927 95.89027125 -37.93744582 88.86447165 -36.63476562 81.83935547 C-35.29245531 74.59971484 -33.96269804 67.35784436 -32.63874018 60.11482716 C-31.49830019 53.87872758 -30.34945049 47.64421623 -29.19398153 41.4108839 C-28.50531359 37.6950604 -27.82000263 33.97869546 -27.14308548 30.26071167 C-26.50760123 26.77204139 -25.86166525 23.28546822 -25.20762825 19.80023003 C-24.85619506 17.91309295 -24.51556087 16.02395484 -24.17524719 14.13478088 C-23.85569817 12.44867958 -23.85569817 12.44867958 -23.5296936 10.72851562 C-23.3493992 9.7522522 -23.1691048 8.77598877 -22.98334694 7.7701416 C-22.1549831 4.96032731 -21.25465859 3.31094269 -19.2265625 1.203125 C-12.90718157 -0.13351391 -6.44080491 0.02714247 0 0 Z M0.7734375 13.203125 C-1.94865457 26.57608739 -4.5960302 39.96277474 -7.13299561 53.37207031 C-7.40310447 54.79792682 -7.67446138 56.22354748 -7.94708252 57.64892578 C-8.33169801 59.66240758 -8.71144222 61.67674861 -9.08984375 63.69140625 C-9.30938721 64.85196533 -9.52893066 66.01252441 -9.75512695 67.20825195 C-10.33022877 70.35639044 -10.33022877 70.35639044 -10.2265625 74.203125 C14.94694695 74.79034849 14.94694695 74.79034849 37.1484375 63.953125 C45.54314176 55.83766246 48.97452666 47.05908156 50.1484375 35.515625 C49.44711353 29.32059663 48.27882455 24.134689 43.5234375 19.828125 C36.78046499 14.69265438 29.76583483 13.06572027 21.37890625 13.10546875 C19.57583008 13.11030273 19.57583008 13.11030273 17.73632812 13.11523438 C16.49044922 13.12361328 15.24457031 13.13199219 13.9609375 13.140625 C12.69572266 13.14513672 11.43050781 13.14964844 10.12695312 13.15429688 C7.0090664 13.16606249 3.89127617 13.18250228 0.7734375 13.203125 Z " fill="#000000" transform="translate(1817.2265625,886.796875)"/>
<path d="M0 0 C1.48831242 0.00667405 2.97660807 0.01863442 4.46484375 0.03515625 C5.22345703 0.03966797 5.98207031 0.04417969 6.76367188 0.04882812 C8.64326246 0.06064945 10.52281274 0.07858547 12.40234375 0.09765625 C14.87862016 6.30457115 16.63505716 12.51071999 18.21801758 18.99804688 C18.48191788 20.06281754 18.74581818 21.1275882 19.01771545 22.22462463 C19.8861406 25.73328126 20.74776842 29.24356959 21.609375 32.75390625 C22.21805135 35.21857117 22.8271642 37.68312834 23.43669128 40.14758301 C24.87793959 45.97920474 26.31496021 51.81185201 27.74986237 57.64503717 C29.51866568 64.83466563 31.29344068 72.02281675 33.06835938 79.2109375 C34.89075298 86.59191049 36.71274444 93.97297879 38.5304718 101.35510254 C38.94740059 103.04726521 38.94740059 103.04726521 39.37275219 104.77361298 C39.91705465 106.98404754 40.46055169 109.1946806 41.00318623 111.40552521 C42.35633383 116.90756522 43.73241198 122.40240498 45.14730835 127.88891602 C45.42741855 128.98297005 45.70752874 130.07702408 45.99612713 131.20423126 C46.52648384 133.271279 47.06252826 135.33687918 47.60535145 137.40068817 C47.84186767 138.32553261 48.07838388 139.25037704 48.32206726 140.20324707 C48.53139232 141.00683907 48.74071737 141.81043106 48.95638561 142.63837433 C49.40234375 145.09765625 49.40234375 145.09765625 49.40234375 151.09765625 C40.82234375 151.09765625 32.24234375 151.09765625 23.40234375 151.09765625 C22.1747941 146.06650412 20.94775242 141.03523316 19.72192383 136.00366211 C19.30619265 134.29786359 18.89018485 132.59213247 18.47387695 130.88647461 C17.86984736 128.41147972 17.26686827 125.93623072 16.6640625 123.4609375 C16.48268234 122.71870438 16.30130219 121.97647125 16.11442566 121.21174622 C14.48664384 114.52020974 12.94186685 107.80998024 11.40234375 101.09765625 C-20.20369815 96.62196814 -20.20369815 96.62196814 -49.65820312 103.40917969 C-55.60288659 108.90907444 -58.02430311 116.92343953 -60.33886719 124.46191406 C-62.3427429 130.24967922 -65.60707027 135.08248388 -68.97265625 140.16015625 C-70.02523923 141.85745409 -71.07502115 143.55649448 -72.12109375 145.2578125 C-73.52262753 147.51891536 -74.70626184 149.20626184 -76.59765625 151.09765625 C-78.56884766 151.32470703 -78.56884766 151.32470703 -80.94921875 151.29296875 C-81.8 151.28652344 -82.65078125 151.28007813 -83.52734375 151.2734375 C-84.86152344 151.24830078 -84.86152344 151.24830078 -86.22265625 151.22265625 C-87.11984375 151.21363281 -88.01703125 151.20460938 -88.94140625 151.1953125 C-91.16042211 151.17170595 -93.37890702 151.13877935 -95.59765625 151.09765625 C-94.94863686 147.84515778 -93.76744482 145.40762381 -92.078125 142.5625 C-91.55694092 141.68110352 -91.03575684 140.79970703 -90.4987793 139.89160156 C-89.93328369 138.94897461 -89.36778809 138.00634766 -88.78515625 137.03515625 C-87.90500854 135.55740723 -87.90500854 135.55740723 -87.00708008 134.04980469 C-82.88141591 127.15539105 -78.64595639 120.33737662 -74.32861328 113.56176758 C-70.03784834 106.82341439 -65.84026339 100.03013191 -61.66015625 93.22265625 C-60.97719482 92.11051758 -60.2942334 90.99837891 -59.59057617 89.85253906 C-58.23370269 87.6429167 -56.87685014 85.4332815 -55.52001953 83.22363281 C-52.72290848 78.67521905 -49.91130316 74.13585309 -47.09765625 69.59765625 C-42.24850996 61.77401414 -37.41927272 53.93829269 -32.59765625 46.09765625 C-4.31576654 0.11714893 -4.31576654 0.11714893 0 0 Z M-4.59765625 31.09765625 C-11.63485758 42.97886293 -18.65249935 54.87158024 -25.64407349 66.7796936 C-26.40279968 68.07160397 -27.16197302 69.36325184 -27.92160034 70.65463257 C-28.9958847 72.48124874 -30.06846986 74.3088522 -31.140625 76.13671875 C-31.7596167 77.19068848 -32.3786084 78.2446582 -33.01635742 79.33056641 C-34.28261975 81.54637886 -35.45631974 83.81498323 -36.59765625 86.09765625 C-21.74765625 86.09765625 -6.89765625 86.09765625 8.40234375 86.09765625 C5.73530597 72.60558275 3.03256096 59.12161244 0.21484375 45.66015625 C-0.15954834 43.83049316 -0.15954834 43.83049316 -0.54150391 41.96386719 C-0.89994385 40.26858887 -0.89994385 40.26858887 -1.265625 38.5390625 C-1.47469482 37.53560791 -1.68376465 36.53215332 -1.89916992 35.49829102 C-2.43470454 32.93967166 -2.43470454 32.93967166 -4.59765625 31.09765625 Z " fill="#000000" transform="translate(2815.59765625,887.90234375)"/>
<path d="M0 0 C2.90702746 -0.00972413 5.81335163 -0.04085599 8.72021484 -0.07226562 C25.46508678 -0.16825238 42.95961672 0.60452236 56.04443359 12.55273438 C62.56592533 19.71046921 64.42484447 28.48275308 64.32177734 37.88476562 C63.24957979 50.85684585 57.05386396 62.19801526 47.72412109 71.07226562 C39.64812542 77.60605221 30.0345178 82.45324323 20.04443359 85.24023438 C18.48595703 85.68689453 18.48595703 85.68689453 16.89599609 86.14257812 C2.60620773 89.50579296 -12.37342006 88.50808654 -26.95556641 88.24023438 C-27.0045961 88.89911148 -27.05362579 89.55798859 -27.10414124 90.23683167 C-27.6738008 97.21122103 -28.67945894 104.01460752 -29.95166016 110.89257812 C-30.14526627 111.95513321 -30.33887238 113.01768829 -30.53834534 114.11244202 C-30.94522238 116.33721284 -31.35458942 118.56152961 -31.76635742 120.78540039 C-32.3955949 124.19142092 -33.01292033 127.5994615 -33.62939453 131.0078125 C-34.0277699 133.17786542 -34.42683392 135.34779206 -34.82666016 137.51757812 C-35.01006454 138.53424057 -35.19346893 139.55090302 -35.38243103 140.59837341 C-35.55923904 141.54358353 -35.73604706 142.48879364 -35.91821289 143.46264648 C-36.1468528 144.70527504 -36.1468528 144.70527504 -36.38011169 145.9730072 C-36.95556641 148.24023438 -36.95556641 148.24023438 -38.95556641 152.24023438 C-46.54556641 152.24023438 -54.13556641 152.24023438 -61.95556641 152.24023438 C-61.95556641 147.37259282 -61.83274108 143.70029173 -60.97523499 139.05900574 C-60.75791214 137.86587769 -60.54058929 136.67274963 -60.31668091 135.44346619 C-60.07513275 134.15332108 -59.83358459 132.86317596 -59.5847168 131.53393555 C-59.3296582 130.14709995 -59.07514068 128.76016474 -58.82112122 127.37313843 C-58.13256474 123.62246846 -57.43625371 119.87327675 -56.73834157 116.12433791 C-56.00864839 112.19826156 -55.28557527 108.27096583 -54.56163025 104.34382629 C-53.34603786 97.75519951 -52.1256329 91.16747876 -50.90209961 84.58032227 C-49.48667598 76.95988392 -48.07776257 69.33826502 -46.67255408 61.71593684 C-45.17630069 53.60009097 -43.67540302 45.48510913 -42.1730926 37.37038255 C-41.74022133 35.0304932 -41.30821333 32.69044582 -40.87639046 30.35036278 C-40.19884966 26.6800356 -39.51820131 23.01029799 -38.83511162 19.3409996 C-38.58452577 17.99231971 -38.33497981 16.64344615 -38.08653259 15.29437065 C-37.748139 13.4579062 -37.40562666 11.62220208 -37.06288147 9.7865448 C-36.87207032 8.75769763 -36.68125917 7.72885046 -36.48466587 6.6688261 C-35.95556641 4.24023438 -35.95556641 4.24023438 -34.95556641 2.24023438 C-24.29647943 -1.31279462 -11.12708787 0.02244496 0 0 Z M-11.95556641 13.24023438 C-13.45157995 16.7169673 -14.41466065 19.99811759 -15.10058594 23.71728516 C-15.40067062 25.32387497 -15.40067062 25.32387497 -15.70681763 26.96292114 C-15.91523285 28.10888763 -16.12364807 29.25485413 -16.33837891 30.43554688 C-16.55750946 31.61994354 -16.77664001 32.80434021 -17.00241089 34.02462769 C-17.4637074 36.52394006 -17.92248105 39.02371922 -18.37890625 41.52392578 C-19.07940678 45.3588859 -19.78832434 49.19221819 -20.49853516 53.02539062 C-20.94564649 55.45368463 -21.39227758 57.88206712 -21.83837891 60.31054688 C-22.15707443 62.03556931 -22.15707443 62.03556931 -22.48220825 63.79544067 C-22.67596039 64.86019623 -22.86971252 65.92495178 -23.06933594 67.02197266 C-23.24095245 67.959534 -23.41256897 68.89709534 -23.58938599 69.86306763 C-24.03168891 72.33353831 -24.03168891 72.33353831 -23.95556641 75.24023438 C4.2840784 76.05177266 4.2840784 76.05177266 28.41943359 62.55273438 C35.918114 54.56132753 38.40265308 44.85880599 38.24755859 34.20898438 C37.8454547 28.33208127 35.75352115 24.63682193 31.66943359 20.55273438 C19.17418896 10.64579041 3.06042596 12.80308758 -11.95556641 13.24023438 Z " fill="#000000" transform="translate(2078.95556640625,886.759765625)"/>
<path d="M0 0 C5.29338434 5.05177759 8.40731385 9.60632013 9.01171875 17.01953125 C8.79991971 20.65862386 7.27817579 22.5868682 4.8828125 25.234375 C1.05278759 28.61380874 -2.8248749 28.82254087 -7.7578125 28.6328125 C-11.6119762 27.9819438 -12.85988932 26.36951137 -15.1171875 23.234375 C-16.08376841 21.59337181 -17.04139341 19.94707521 -17.9921875 18.296875 C-22.17842221 11.14627612 -27.28542371 6.76527893 -35.125 3.9296875 C-48.42817982 0.83834806 -62.2978876 3.73523873 -73.93359375 10.6953125 C-78.36121503 13.81603304 -82.25479517 17.44923052 -86.1171875 21.234375 C-86.74625 21.82734375 -87.3753125 22.4203125 -88.0234375 23.03125 C-101.45412945 36.82823355 -106.9868569 58.97198272 -107.4296875 77.609375 C-107.1746339 92.29746161 -103.40542839 106.58323463 -93.08984375 117.48828125 C-82.5042966 126.85806259 -70.70536475 129.08232106 -57 128.64453125 C-45.24153446 127.90818447 -34.79272612 122.91825064 -24.51953125 117.4921875 C-20.5652332 116.03032301 -18.18195628 116.31268221 -14.1171875 117.234375 C-13.1796875 119.734375 -13.1796875 119.734375 -13.1171875 123.234375 C-19.5061558 134.26190932 -33.7327156 139.8173203 -45.3828125 143.17578125 C-52.26157776 144.86287178 -59.04600397 145.88518075 -66.1171875 146.234375 C-66.82875 146.275625 -67.5403125 146.316875 -68.2734375 146.359375 C-86.74153026 146.91066135 -104.91210591 141.59384547 -118.8046875 129.171875 C-128.95513849 118.24062009 -134.46951645 102.99001107 -135.1171875 88.234375 C-135.15714844 87.57953125 -135.19710938 86.9246875 -135.23828125 86.25 C-136.07124555 60.18311715 -125.63632267 34.70887358 -108.59375 15.37109375 C-101.86310956 8.23582537 -94.53403794 3.1228981 -86.1171875 -1.765625 C-85.37597656 -2.19617188 -84.63476562 -2.62671875 -83.87109375 -3.0703125 C-60.34146839 -15.69119263 -21.52970954 -17.95466552 0 0 Z " fill="#000000" transform="translate(1374.1171875,896.765625)"/>
<path d="M0 0 C1.25963011 0.00138269 1.25963011 0.00138269 2.5447073 0.00279331 C3.50529552 0.00141865 4.46588375 0.00004398 5.45558071 -0.00137234 C6.51796963 0.00222294 7.58035854 0.00581821 8.67494106 0.00952244 C10.34302067 0.0093034 10.34302067 0.0093034 12.04479885 0.00907993 C15.74046143 0.00977962 19.43607434 0.01757463 23.13172817 0.02539158 C25.68620686 0.02725556 28.24068589 0.02867956 30.79516506 0.0296793 C36.84418902 0.03311439 42.89319147 0.04100518 48.9422068 0.05102879 C55.82722346 0.062191 62.71224096 0.06770065 69.59726441 0.07272422 C83.76371022 0.08318783 97.93014009 0.1007866 112.09657192 0.12304783 C112.11691307 1.56048883 112.13141015 2.99801331 112.14344692 4.43554783 C112.15214809 5.23605564 112.16084927 6.03656345 112.16981411 6.86132908 C112.07759701 9.70899305 111.61172083 11.69880958 110.09657192 14.12304783 C107.30206297 15.07769301 104.72357361 15.24541832 101.78700161 15.23657322 C100.94643215 15.23649769 100.10586269 15.23642216 99.23982143 15.23634434 C97.89274105 15.22860241 97.89274105 15.22860241 96.51844692 15.22070408 C95.59187283 15.21928913 94.66529873 15.21787418 93.71064663 15.21641636 C90.755922 15.21082607 87.80127359 15.19827533 84.84657192 15.18554783 C82.84136468 15.18053157 80.83615626 15.17596889 78.83094692 15.17187595 C73.91945929 15.16085981 69.00802852 15.14360183 64.09657192 15.12304783 C63.97713223 16.35318607 63.85769253 17.58332432 63.73463345 18.85073948 C63.07269746 24.78140493 61.98407745 30.61662102 60.88758755 36.47998142 C60.55327976 38.28888859 60.55327976 38.28888859 60.21221828 40.13433933 C59.60512295 43.4153497 58.99516131 46.69580074 58.38374043 49.97600603 C57.74284828 53.41750756 57.10531408 56.8596313 56.46729946 60.30166721 C55.39691316 66.07343826 54.32396137 71.84472776 53.24940395 77.61572361 C52.00726971 84.28684958 50.76896169 90.95867703 49.53273344 97.63089979 C48.34140776 104.06040693 47.14765339 110.48946071 45.9526968 116.91829395 C45.44479545 119.65094091 44.93770007 122.3837356 44.43124294 125.11665058 C43.72519623 128.92573057 43.01557391 132.73413951 42.3055563 136.54248142 C42.09565563 137.67704777 41.88575497 138.81161411 41.66949368 139.98056126 C41.47603863 141.01503391 41.28258358 142.04950657 41.08326626 143.11532688 C40.83218231 144.46527272 40.83218231 144.46527272 40.57602596 145.8424902 C40.09657192 148.12304783 40.09657192 148.12304783 39.09657192 151.12304783 C31.17657192 151.12304783 23.25657192 151.12304783 15.09657192 151.12304783 C16.22157192 139.87304783 16.22157192 139.87304783 17.08999538 135.17501926 C17.28489559 134.10950336 17.4797958 133.04398746 17.68060207 131.9461832 C17.89207378 130.81329365 18.10354549 129.68040409 18.32142544 128.51318455 C18.54590359 127.29252796 18.77038174 126.07187138 19.00166225 124.8142252 C19.61228337 121.49825004 20.22647932 118.1829762 20.84233499 114.8679719 C21.48722354 111.39186305 22.12744823 107.91489535 22.76818752 104.43801975 C23.97965662 97.86808453 25.19526252 91.29892197 26.41239065 84.73003304 C27.79893571 77.24565525 29.18081498 69.76041837 30.56232083 62.27510905 C33.40191437 46.89013316 36.24730735 31.50623579 39.09657192 16.12304783 C37.87027065 16.09799168 36.64396938 16.07293552 35.38050747 16.04712009 C30.83498922 15.95301729 26.28962275 15.8528035 21.744277 15.75073338 C19.77621414 15.70739541 17.80811394 15.66571951 15.83998013 15.62573338 C13.01263583 15.56800338 10.18547921 15.50431667 7.35829067 15.43945408 C6.03627903 15.41438534 6.03627903 15.41438534 4.68756008 15.38881016 C3.86693584 15.36886494 3.04631161 15.34891972 2.20081997 15.32837009 C1.47912121 15.31282581 0.75742245 15.29728153 0.01385403 15.28126621 C-1.90342808 15.12304783 -1.90342808 15.12304783 -4.90342808 14.12304783 C-5.19341872 5.56832379 -5.19341872 5.56832379 -2.90342808 1.12304783 C-1.90342808 0.12304783 -1.90342808 0.12304783 0 0 Z " fill="#000000" transform="translate(2984.9034280776978,887.8769521713257)"/>
<path d="M0 0 C7.59 0 15.18 0 23 0 C24.16184689 3.48554066 23.80775735 5.08385343 23.14233398 8.66796875 C22.92667282 9.84981247 22.71101166 11.03165619 22.48881531 12.24931335 C22.241382 13.56206873 21.99380315 14.87479669 21.74609375 16.1875 C21.49067905 17.57095259 21.23591937 18.95452624 20.98176575 20.33821106 C20.28756441 24.10673333 19.58398729 27.87345101 18.87861633 31.63989639 C18.14093393 35.5867167 17.41128856 39.53502256 16.68066406 43.4831543 C15.44229329 50.16857173 14.19822969 56.85291014 12.95068359 63.53662109 C11.30313032 72.36411139 9.66658351 81.19360959 8.03309631 90.02371216 C6.59732966 97.7845724 5.15660934 105.54451202 3.71550369 113.30438232 C3.24919678 115.81682771 2.78368918 118.32942015 2.31832886 120.84204102 C1.58634631 124.79272455 0.85121085 128.7428089 0.11362267 132.69244957 C-0.15775956 134.14825769 -0.42810111 135.60426024 -0.69734764 137.06046486 C-1.0646178 139.04579779 -1.43600151 141.03036845 -1.80761719 143.01489258 C-2.01489441 144.12866776 -2.22217163 145.24244293 -2.43572998 146.38996887 C-3 149 -3 149 -4 151 C-11.92 151 -19.84 151 -28 151 C-26.8749555 138.62451045 -26.8749555 138.62451045 -25.94410706 133.58572388 C-25.73526886 132.44191757 -25.52643066 131.29811127 -25.31126404 130.11964417 C-25.08423294 128.90469772 -24.85720184 127.68975128 -24.62329102 126.43798828 C-24.37967415 125.1145218 -24.13648176 123.79097712 -23.89367676 122.46736145 C-23.23919423 118.90700007 -22.57846631 115.34782553 -21.91624188 111.78889704 C-21.36246947 108.80930754 -20.81194023 105.82912263 -20.2614283 102.84892929 C-18.96314017 95.82066089 -17.65989841 88.79332413 -16.35327148 81.76660156 C-15.00709774 74.52683718 -13.66833101 67.28573168 -12.33332878 60.04389966 C-11.18381533 53.8093958 -10.03025448 47.5756507 -8.87333053 41.34251773 C-8.18365089 37.62670176 -7.49537801 33.91064026 -6.81079292 30.19388199 C-6.1678693 26.7045405 -5.5198657 23.21617991 -4.86795807 19.72850609 C-4.51660685 17.84203879 -4.17035662 15.95462367 -3.82426453 14.06718445 C-3.61260651 12.94029709 -3.40094849 11.81340973 -3.18287659 10.65237427 C-3.00166039 9.67573381 -2.8204442 8.69909336 -2.63373661 7.69285774 C-2 5 -2 5 0 0 Z " fill="#000000" transform="translate(3229,888)"/>
<path d="M0 0 C9.04851259 6.90737347 15.9856528 16.08186351 18.33984375 27.44140625 C19.95569171 40.52313429 18.20018877 52.98190508 10.23046875 63.765625 C9.70066406 64.42046875 9.17085937 65.0753125 8.625 65.75 C8.14675781 66.36359375 7.66851563 66.9771875 7.17578125 67.609375 C1.28950784 74.31112709 -9.37936486 80.13328849 -18.3828125 80.92700195 C-34.6806183 81.39872119 -46.95791959 79.353246 -59.375 67.90625 C-67.40584497 59.46001649 -71.23189595 48.28875996 -71.625 36.75 C-71.21213535 25.28153746 -67.13698964 13.80578767 -59.18359375 5.3359375 C-42.52619767 -9.27076403 -18.87326699 -12.42111096 0 0 Z M-51.375 10.75 C-58.77952026 20.01410297 -62.50550792 29.84736663 -61.375 41.75 C-59.20550095 52.5321489 -55.03604579 60.67518721 -46 67.125 C-36.63732894 72.7993461 -27.28101118 74.33331332 -16.44921875 72.1640625 C-7.86697149 69.51776844 -1.17317982 64.28282381 3.546875 56.63671875 C8.56164468 46.85791787 10.37657552 37.64710336 7.94140625 26.66796875 C4.48035049 16.39969128 -1.64806295 8.83697497 -11.265625 3.75 C-24.37620016 -2.17826007 -41.18377797 0.23303115 -51.375 10.75 Z " fill="#000000" transform="translate(3301.375,689.25)"/>
<path d="M0 0 C27.75862069 0 27.75862069 0 33.9375 3.8125 C37.9128279 8.02875686 38.45693867 12.15449048 38.31640625 17.78515625 C37.81252617 21.31231678 36.32362195 23.36237508 34 26 C31.31662172 27.89799927 29.11721553 28.96092816 26 30 C26.39380859 30.59538574 26.78761719 31.19077148 27.19335938 31.80419922 C28.96697095 34.49137818 30.73355765 37.18310345 32.5 39.875 C33.43005859 41.28072266 33.43005859 41.28072266 34.37890625 42.71484375 C35.25869141 44.05869141 35.25869141 44.05869141 36.15625 45.4296875 C36.70087891 46.25710449 37.24550781 47.08452148 37.80664062 47.93701172 C39 50 39 50 39 52 C35.49862964 52.62190215 32.48147068 52.81092949 29 52 C25.98936053 49.15519445 24.26460593 45.77956767 22.375 42.125 C21.84777344 41.18785156 21.32054688 40.25070312 20.77734375 39.28515625 C17 32.46631494 17 32.46631494 17 30 C14.36 30 11.72 30 9 30 C9 37.26 9 44.52 9 52 C6.03 52 3.06 52 0 52 C0 34.84 0 17.68 0 0 Z M9 8 C9 12.95 9 17.9 9 23 C15.43859625 23.1788499 20.8772047 23.07737698 27 21 C29.34522935 18.11487022 29.34522935 18.11487022 28.875 14.5 C28.31332472 11.06749293 28.31332472 11.06749293 26.4296875 9.29296875 C23.06092439 7.50026684 19.95718481 7.67690056 16.25 7.8125 C12.66125 7.9053125 12.66125 7.9053125 9 8 Z " fill="#000000" transform="translate(3258,700)"/>
</svg>
